<svg xmlns="http://www.w3.org/2000/svg" xmlns:xlink="http://www.w3.org/1999/xlink" width="969" height="613" viewBox="0 0 969 613">
  <defs>
    <clipPath id="clip-path">
      <rect id="Rectangle_176" data-name="Rectangle 176" width="969" height="613" transform="translate(0.248)" fill="#fff" stroke="#707070" stroke-width="1"/>
    </clipPath>
  </defs>
  <g id="Group_3755" data-name="Group 3755" transform="translate(-397)">
    <g id="Mask_Group_1" data-name="Mask Group 1" transform="translate(396.752)" clip-path="url(#clip-path)">
      <g id="Path_3224" data-name="Path 3224" transform="translate(-787.749 -223.901)">
        <path id="Path_3423" data-name="Path 3423" d="M530.159,0c292.8,0,530.159,237.36,530.159,530.159s-237.36,530.159-530.159,530.159S0,822.958,0,530.159,237.36,0,530.159,0Z" fill="none"/>
        <path id="Path_3424" data-name="Path 3424" d="M530.159,2a536.677,536.677,0,0,0-54,2.727,529.5,529.5,0,0,0-52.441,8C406.7,16.212,389.67,20.591,373.1,25.745c-16.385,5.1-32.711,11.072-48.524,17.76-15.667,6.627-31.2,14.109-46.168,22.24C263.547,73.818,248.9,82.719,234.862,92.2c-13.967,9.436-27.647,19.665-40.66,30.4-12.982,10.714-25.6,22.183-37.508,34.089S133.319,181.22,122.605,194.2c-10.74,13.013-20.969,26.693-30.4,40.66-9.481,14.034-18.382,28.685-26.455,43.546-8.131,14.968-15.614,30.5-22.24,46.168-6.688,15.813-12.664,32.139-17.76,48.524-5.154,16.57-9.532,33.6-13.014,50.614a529.5,529.5,0,0,0-8,52.441,536.11,536.11,0,0,0,0,108.008,529.486,529.486,0,0,0,8,52.44c3.482,17.016,7.86,34.045,13.014,50.615,5.1,16.385,11.072,32.711,17.76,48.524,6.627,15.667,14.109,31.2,22.24,46.167,8.073,14.862,16.974,29.513,26.455,43.547,9.436,13.967,19.665,27.647,30.4,40.66,10.714,12.982,22.183,25.6,34.089,37.508S181.22,927,194.2,937.713c13.013,10.74,26.693,20.969,40.66,30.4,14.034,9.481,28.685,18.382,43.546,26.455,14.968,8.127,30.5,15.617,46.168,22.237,15.813,6.69,32.139,12.67,48.524,17.76,16.57,5.16,33.6,9.54,50.614,13.02a527.8,527.8,0,0,0,52.441,8,535.514,535.514,0,0,0,108.008,0,527.778,527.778,0,0,0,52.44-8c17.016-3.48,34.045-7.86,50.615-13.02,16.385-5.09,32.711-11.07,48.524-17.76,15.667-6.62,31.2-14.11,46.167-22.237,14.862-8.073,29.513-16.974,43.547-26.455,13.967-9.436,27.647-19.665,40.66-30.4,12.982-10.714,25.6-22.183,37.508-34.089S927,879.1,937.713,866.116c10.74-13.013,20.969-26.693,30.4-40.66,9.481-14.034,18.382-28.685,26.455-43.547,8.127-14.967,15.617-30.5,22.237-46.167,6.69-15.813,12.67-32.139,17.76-48.524,5.16-16.57,9.54-33.6,13.02-50.615a527.778,527.778,0,0,0,8-52.44,535.514,535.514,0,0,0,0-108.008,527.8,527.8,0,0,0-8-52.441c-3.48-17.015-7.86-34.044-13.02-50.614-5.09-16.385-11.07-32.711-17.76-48.524-6.62-15.667-14.11-31.2-22.237-46.168C986.5,263.547,977.6,248.9,968.118,234.862c-9.436-13.967-19.665-27.647-30.4-40.66C927,181.22,915.53,168.6,903.624,156.694s-24.526-23.375-37.508-34.089c-13.013-10.74-26.693-20.969-40.66-30.4-14.034-9.481-28.685-18.382-43.547-26.455-14.967-8.131-30.5-15.614-46.167-22.24-15.813-6.688-32.139-12.664-48.524-17.76-16.57-5.154-33.6-9.532-50.615-13.014a529.486,529.486,0,0,0-52.44-8,536.677,536.677,0,0,0-54-2.727m0-2c292.8,0,530.161,237.36,530.161,530.159S822.958,1060.32,530.159,1060.32,0,822.958,0,530.159,237.36,0,530.159,0Z" fill="#fff"/>
      </g>
      <g id="Path_3223" data-name="Path 3223" transform="translate(-711.184 -147.337)">
        <path id="Path_3425" data-name="Path 3425" d="M453.594,0C704.107,0,907.188,203.081,907.188,453.594S704.107,907.188,453.594,907.188,0,704.107,0,453.594,203.081,0,453.594,0Z" fill="none"/>
        <path id="Path_3426" data-name="Path 3426" d="M453.594,2a458.845,458.845,0,0,0-46.175,2.332,452.688,452.688,0,0,0-44.839,6.843C348.031,14.152,333.471,17.9,319.3,22.3c-14.009,4.357-27.968,9.466-41.489,15.185A452.918,452.918,0,0,0,37.488,277.814C31.769,291.335,26.66,305.294,22.3,319.3c-4.407,14.168-8.151,28.728-11.128,43.277a452.688,452.688,0,0,0-6.843,44.839,458.377,458.377,0,0,0,0,92.35,452.684,452.684,0,0,0,6.843,44.839c2.977,14.548,6.721,29.109,11.128,43.277,4.357,14.009,9.466,27.968,15.185,41.489A452.914,452.914,0,0,0,277.814,869.7c13.521,5.719,27.48,10.828,41.489,15.185,14.168,4.407,28.728,8.151,43.277,11.128a452.545,452.545,0,0,0,44.839,6.843,458.318,458.318,0,0,0,92.35,0,452.541,452.541,0,0,0,44.839-6.843c14.548-2.977,29.109-6.721,43.277-11.128,14.009-4.357,27.968-9.466,41.489-15.185A452.913,452.913,0,0,0,869.7,629.374c5.719-13.521,10.828-27.48,15.185-41.489,4.407-14.168,8.151-28.729,11.128-43.277a452.541,452.541,0,0,0,6.843-44.839,458.318,458.318,0,0,0,0-92.35,452.545,452.545,0,0,0-6.843-44.839c-2.977-14.549-6.721-29.109-11.128-43.277-4.357-14.009-9.466-27.968-15.185-41.489A452.917,452.917,0,0,0,629.374,37.488c-13.521-5.719-27.48-10.828-41.489-15.185-14.168-4.407-28.729-8.151-43.277-11.128a452.684,452.684,0,0,0-44.839-6.843A458.845,458.845,0,0,0,453.594,2m0-2C704.107,0,907.188,203.081,907.188,453.594S704.107,907.188,453.594,907.188,0,704.107,0,453.594,203.081,0,453.594,0Z" fill="#fff"/>
      </g>
    </g>
    <text id="Q1_2022" data-name="Q1 2022" transform="translate(490.1 302.46)" fill="#fff" font-size="20" font-family="Raleway-Bold, Raleway" font-weight="700"><tspan x="0" y="0">Q1 2022</tspan></text>
    <g id="Ellipse_698" data-name="Ellipse 698" transform="translate(584 299)" fill="#fe0" stroke="#fe0" stroke-width="2">
      <circle cx="7.5" cy="7.5" r="7.5" stroke="none"/>
      <circle cx="7.5" cy="7.5" r="6.5" fill="none"/>
    </g>
    <g id="Ellipse_700" data-name="Ellipse 700" transform="translate(655 375)" fill="#fff" stroke="#fff" stroke-width="2">
      <circle cx="7.5" cy="7.5" r="7.5" stroke="none"/>
      <circle cx="7.5" cy="7.5" r="6.5" fill="none"/>
    </g>
    <g id="Ellipse_701" data-name="Ellipse 701" transform="translate(655 222)" fill="#fff" stroke="#fff" stroke-width="2">
      <circle cx="7.5" cy="7.5" r="7.5" stroke="none"/>
      <circle cx="7.5" cy="7.5" r="6.5" fill="none"/>
    </g>
    <g id="Ellipse_702" data-name="Ellipse 702" transform="translate(609 69)" fill="#fff" stroke="#fff" stroke-width="2">
      <circle cx="7.5" cy="7.5" r="7.5" stroke="none"/>
      <circle cx="7.5" cy="7.5" r="6.5" fill="none"/>
    </g>
    <text id="Market_Research_Gathering_Feedback_from_Other_IDO_Platforms_The_First_Concept_of_The_Project_Is_Live" data-name="Market Research | Gathering Feedback from Other IDO Platforms  The First Concept of The Project Is Live" transform="translate(737 72)" fill="#fff" font-size="14" font-family="Raleway-Regular, Raleway" letter-spacing="0.01em"><tspan x="0" y="0">Market Research | Gathering Feedback from Other IDO Platforms </tspan><tspan x="0" y="20">The First Concept of The Project Is Live</tspan></text>
    <text id="Foundation_of_Starterra_Team_Creation_Website_Development_Establishing_Cooperation_with_Investors_and_Strategic_Partners" data-name="Foundation of Starterra | Team Creation | Website Development | Establishing Cooperation with Investors and Strategic Partners" transform="translate(784 215)" fill="#fff" font-size="14" font-family="Raleway-Regular, Raleway" letter-spacing="0.01em"><tspan x="0" y="0">Foundation of Starterra | Team Creation | Website </tspan><tspan x="0" y="20">Development | Establishing Cooperation with Investors and </tspan><tspan x="0" y="40">Strategic Partners</tspan></text>
    <text id="Public_Sale_of_STT_DEX_Listing_Early_Stage_Platform_Launch" data-name="Public Sale of STT | DEX Listing | Early Stage Platform Launch" transform="translate(784 388)" fill="#fff" font-size="14" font-family="Raleway-Regular, Raleway" letter-spacing="0.01em"><tspan x="0" y="0">Public Sale of STT | DEX Listing | Early Stage Platform Launch</tspan></text>
    <text id="To_Be_Announced" data-name="To Be Announced" transform="translate(449.38 327.54)" fill="#fff" font-size="14" font-family="Raleway-Regular, Raleway" letter-spacing="0.01em"><tspan x="0" y="0">To Be Announced</tspan></text>
    <text id="Platform_Launch_TGE_CEX_Listing" data-name="Platform Launch | TGE | CEX Listing" transform="translate(738 542)" fill="#fff" font-size="14" font-family="Raleway-Regular, Raleway" letter-spacing="0.01em"><tspan x="0" y="0">Platform Launch | TGE | CEX Listing</tspan></text>
    <text id="Q4_2021" data-name="Q4 2021" transform="translate(649 544)" fill="#fff" font-size="20" font-family="Raleway-Bold, Raleway" font-weight="700" letter-spacing="0.01em"><tspan x="0" y="0">Q4 2021</tspan></text>
    <text id="Q2_2021" data-name="Q2 2021" transform="translate(695 237)" fill="#fff" font-size="20" font-family="Raleway-Bold, Raleway" font-weight="700" letter-spacing="0.01em"><tspan x="0" y="0">Q2 2021</tspan></text>
    <text id="Q3_2021" data-name="Q3 2021" transform="translate(695 390)" fill="#fff" font-size="20" font-family="Raleway-Bold, Raleway" font-weight="700" letter-spacing="0.01em"><tspan x="0" y="0">Q3 2021</tspan></text>
    <g id="Ellipse_699" data-name="Ellipse 699" transform="translate(608 529)" fill="#fff" stroke="#fff" stroke-width="2">
      <circle cx="7.5" cy="7.5" r="7.5" stroke="none"/>
      <circle cx="7.5" cy="7.5" r="6.5" fill="none"/>
    </g>
    <text id="Q1_2021" data-name="Q1 2021" transform="translate(649 83)" fill="#fff" font-size="20" font-family="Raleway-Bold, Raleway" font-weight="700" letter-spacing="0.01em"><tspan x="0" y="0">Q1 2021</tspan></text>
    <text id="We_Are_Here" data-name="We Are Here" transform="translate(425.277 466.494)" fill="#fe0" font-size="14" font-family="Raleway-Bold, Raleway" font-weight="700"><tspan x="0" y="0">We Are Here</tspan></text>
    <g id="Path_3410" data-name="Path 3410" transform="matrix(-0.883, -0.469, 0.469, -0.883, 577.027, 503)">
      <path id="Path_3427" data-name="Path 3427" d="M30.689,60.379A29.7,29.7,0,0,1,19.133,3.333,29.7,29.7,0,0,1,42.245,58.046,29.5,29.5,0,0,1,30.689,60.379Z" fill="#19202b"/>
      <path id="Path_3428" data-name="Path 3428" d="M30.689,61.379v-2A28.7,28.7,0,0,0,41.856,4.254,28.7,28.7,0,0,0,19.523,57.125a28.507,28.507,0,0,0,11.167,2.254v2m0,0A30.689,30.689,0,1,1,61.379,30.689,30.689,30.689,0,0,1,30.689,61.379Z" fill="#fe0"/>
    </g>
    <g id="Group_3752" data-name="Group 3752" transform="matrix(-0.342, 0.94, -0.94, -0.342, 579.641, 443.575)">
      <path id="Path_3360" data-name="Path 3360" d="M3.348,1.336H.668A.668.668,0,0,1,.668,0h2.68a.668.668,0,0,1,0,1.336Z" transform="translate(11.442 1.106)" fill="#fe0"/>
      <path id="Path_3361" data-name="Path 3361" d="M.668,0h2.68a.668.668,0,0,1,0,1.336H.668A.668.668,0,0,1,.668,0Z" transform="translate(11.442 14.517)" fill="#fe0"/>
      <path id="Path_3362" data-name="Path 3362" d="M7.092,1.336H.668A.668.668,0,0,1,.668,0H7.092a.668.668,0,1,1,0,1.336Z" transform="translate(3.673 3.786)" fill="#fe0"/>
      <path id="Path_3363" data-name="Path 3363" d="M12.726.668a.668.668,0,0,1-.668.668H.668A.668.668,0,0,1,.668,0h11.39a.668.668,0,0,1,.668.668Z" transform="translate(0 7.583)" fill="#fe0"/>
      <path id="Path_3364" data-name="Path 3364" d="M.668,0H7.092a.668.668,0,1,1,0,1.336H.668A.668.668,0,0,1,.668,0Z" transform="translate(3.673 11.836)" fill="#fe0"/>
      <path id="Path_3365" data-name="Path 3365" d="M29.251,8.251h0l-.708.715A12.47,12.47,0,0,1,24.987,11.2l-.067.029c-.226.1-.462.2-.711.294l-.184.07q-.324.123-.673.239l-.28.092q-.318.1-.655.2c-.122.034-.244.068-.37.1q-.311.082-.639.157-.229.053-.466.1-.3.062-.6.116-.287.051-.584.1c-.163.025-.325.049-.492.072q-.382.049-.782.089c-.1.01-.19.024-.289.033h-.059c-.3.025-.6.048-.908.065h-.5l-2.3,2.3L13.172,16.5H5.592l1.256-1.256,2.3-2.3H6.519L4.811,10.787l-1.12,1.42a1.954,1.954,0,0,1-1.534.744H0V3.6H2.157a1.954,1.954,0,0,1,1.534.744L4.807,5.759,6.549,3.551H9.142l-2.3-2.3L5.592,0h7.581l1.256,1.256,2.3,2.3h.5c.31.016.611.039.908.065a.486.486,0,0,1,.059,0c.1.009.191.023.289.033.266.027.527.056.782.089.167.022.33.047.492.072q.3.045.584.1.307.055.6.116.237.049.466.1.327.075.639.156l.37.1q.337.095.655.2c.095.03.188.061.28.092q.349.117.673.239l.184.07c.249.1.485.194.711.294l.067.029a12.459,12.459,0,0,1,3.559,2.233l.708.715h0Zm-9.932.03a14.545,14.545,0,0,0,.327,3.141,16.031,16.031,0,0,0,7.8-3.171A16.027,16.027,0,0,0,19.66,5.082,14.462,14.462,0,0,0,19.319,8.281Zm-10.7,6.965h4.029l2.3-2.3h-4.03ZM2.718,5.117a.724.724,0,0,0-.568-.276H1.241V11.71h.908a.724.724,0,0,0,.568-.276L4.19,9.568V6.983Zm9.934-3.862H8.623l2.3,2.3h4.029Zm4.575,3.567S16.945,4.8,7.154,4.791L5.433,6.972v2.6l1.69,2.142c10.566-.007,10.1-.031,10.1-.031.4-.022.792-.054,1.171-.092a16.222,16.222,0,0,1,.014-6.67q-.569-.066-1.181-.1Z" transform="translate(14.888)" fill="#fe0"/>
    </g>
  </g>
</svg>
