<svg xmlns="http://www.w3.org/2000/svg" xmlns:xlink="http://www.w3.org/1999/xlink" width="1046" height="613" viewBox="0 0 1046 613">
  <defs>
    <clipPath id="clip-path">
      <rect id="Rectangle_176" data-name="Rectangle 176" width="1046" height="613" transform="translate(0.248)" fill="#fff" stroke="#707070" stroke-width="1"/>
    </clipPath>
  </defs>
  <g id="Group_3702" data-name="Group 3702" transform="translate(58 -4088)">
    <g id="Group_3701" data-name="Group 3701">
      <g id="rak" transform="translate(-455 988)">
        <g id="Group_3698" data-name="Group 3698">
          <g id="Mask_Group_1" data-name="Mask Group 1" transform="translate(396.752 3100)" clip-path="url(#clip-path)">
            <g id="Path_3224" data-name="Path 3224" transform="translate(-787.749 -223.901)" fill="none">
              <path d="M530.159,0c292.8,0,530.159,237.36,530.159,530.159s-237.36,530.159-530.159,530.159S0,822.958,0,530.159,237.36,0,530.159,0Z" stroke="none"/>
              <path d="M 530.158935546875 2 C 512.1421508789063 2 493.97265625 2.91748046875 476.1553344726563 4.7269287109375 C 458.5963745117188 6.5101318359375 440.9528198242188 9.2027587890625 423.7144165039063 12.7303466796875 C 406.69921875 16.212158203125 389.670166015625 20.5908203125 373.099853515625 25.74462890625 C 356.715087890625 30.8408203125 340.3893432617188 36.816162109375 324.5762939453125 43.5045166015625 C 308.9090576171875 50.1312255859375 293.3759765625 57.6138916015625 278.4083862304688 65.74481201171875 C 263.5470581054688 73.81787109375 248.8958740234375 82.71881103515625 234.861572265625 92.20013427734375 C 220.8952026367188 101.6356201171875 207.2152099609375 111.8653564453125 194.2015991210938 122.6050415039063 C 181.2198486328125 133.3185424804688 168.6005249023438 144.787841796875 156.6941528320313 156.6941528320313 C 144.787841796875 168.6005249023438 133.3185424804688 181.2198486328125 122.6050415039063 194.2015991210938 C 111.8653564453125 207.2152099609375 101.6356201171875 220.8952026367188 92.20013427734375 234.861572265625 C 82.71881103515625 248.8958740234375 73.81787109375 263.5470581054688 65.74481201171875 278.4083862304688 C 57.6138916015625 293.3759765625 50.1312255859375 308.9090576171875 43.5045166015625 324.5762939453125 C 36.816162109375 340.3893432617188 30.8408203125 356.715087890625 25.74462890625 373.099853515625 C 20.5908203125 389.670166015625 16.212158203125 406.69921875 12.7303466796875 423.7144165039063 C 9.2027587890625 440.9528198242188 6.5101318359375 458.5963745117188 4.7269287109375 476.1553344726563 C 2.91748046875 493.97265625 2 512.1421508789063 2 530.158935546875 C 2 548.1757202148438 2.91748046875 566.34521484375 4.7269287109375 584.1625366210938 C 6.5101318359375 601.721435546875 9.2027587890625 619.3651123046875 12.7303466796875 636.6034545898438 C 16.212158203125 653.61865234375 20.5908203125 670.647705078125 25.74462890625 687.218017578125 C 30.8408203125 703.602783203125 36.816162109375 719.9285278320313 43.5045166015625 735.7415771484375 C 50.1312255859375 751.4088134765625 57.6138916015625 766.94189453125 65.74481201171875 781.909423828125 C 73.81787109375 796.7708129882813 82.71881103515625 811.4219970703125 92.20013427734375 825.456298828125 C 101.6356201171875 839.4226684570313 111.8653564453125 853.1026611328125 122.6050415039063 866.1162719726563 C 133.3185424804688 879.0980224609375 144.787841796875 891.7173461914063 156.6941528320313 903.6237182617188 C 168.6005249023438 915.530029296875 181.2198486328125 926.9993286132813 194.2015991210938 937.7127685546875 C 207.2152099609375 948.4525146484375 220.8952026367188 958.6822509765625 234.861572265625 968.1177368164063 C 248.8958740234375 977.5990600585938 263.5470581054688 986.5 278.4083862304688 994.5730590820313 C 293.3759765625 1002.703979492188 308.9090576171875 1010.186645507813 324.5762939453125 1016.813354492188 C 340.3893432617188 1023.501708984375 356.715087890625 1029.47705078125 373.099853515625 1034.5732421875 C 389.670166015625 1039.72705078125 406.69921875 1044.105712890625 423.7144165039063 1047.587524414063 C 440.9528198242188 1051.115112304688 458.5963745117188 1053.807739257813 476.1553344726563 1055.590942382813 C 493.97265625 1057.400390625 512.1421508789063 1058.31787109375 530.158935546875 1058.31787109375 C 548.1757202148438 1058.31787109375 566.34521484375 1057.400390625 584.1625366210938 1055.590942382813 C 601.721435546875 1053.807739257813 619.3651123046875 1051.115112304688 636.6034545898438 1047.587524414063 C 653.61865234375 1044.105712890625 670.647705078125 1039.72705078125 687.218017578125 1034.5732421875 C 703.602783203125 1029.47705078125 719.9285278320313 1023.501708984375 735.7415771484375 1016.813354492188 C 751.4088134765625 1010.186645507813 766.94189453125 1002.703979492188 781.909423828125 994.5730590820313 C 796.7708129882813 986.5 811.4219970703125 977.5990600585938 825.456298828125 968.1177368164063 C 839.4226684570313 958.6822509765625 853.1026611328125 948.4525146484375 866.1162719726563 937.7127685546875 C 879.0980224609375 926.9993286132813 891.7173461914063 915.530029296875 903.6237182617188 903.6237182617188 C 915.530029296875 891.7173461914063 926.9993286132813 879.0980224609375 937.7127685546875 866.1162719726563 C 948.4525146484375 853.1026611328125 958.6822509765625 839.4226684570313 968.1177368164063 825.456298828125 C 977.5990600585938 811.4219970703125 986.5 796.7708129882813 994.5730590820313 781.909423828125 C 1002.703979492188 766.94189453125 1010.186645507813 751.4088134765625 1016.813354492188 735.7415771484375 C 1023.501708984375 719.9285278320313 1029.47705078125 703.602783203125 1034.5732421875 687.218017578125 C 1039.72705078125 670.647705078125 1044.105712890625 653.61865234375 1047.587524414063 636.6034545898438 C 1051.115112304688 619.3651123046875 1053.807739257813 601.721435546875 1055.590942382813 584.1625366210938 C 1057.400390625 566.34521484375 1058.31787109375 548.1757202148438 1058.31787109375 530.158935546875 C 1058.31787109375 512.1421508789063 1057.400390625 493.97265625 1055.590942382813 476.1553344726563 C 1053.807739257813 458.5963745117188 1051.115112304688 440.9528198242188 1047.587524414063 423.7144165039063 C 1044.105712890625 406.69921875 1039.72705078125 389.670166015625 1034.5732421875 373.099853515625 C 1029.47705078125 356.715087890625 1023.501708984375 340.3893432617188 1016.813354492188 324.5762939453125 C 1010.186645507813 308.9090576171875 1002.703979492188 293.3759765625 994.5730590820313 278.4083862304688 C 986.5 263.5470581054688 977.5990600585938 248.8958740234375 968.1177368164063 234.861572265625 C 958.6822509765625 220.8952026367188 948.4525146484375 207.2152099609375 937.7127685546875 194.2015991210938 C 926.9993286132813 181.2198486328125 915.530029296875 168.6005249023438 903.6237182617188 156.6941528320313 C 891.7173461914063 144.787841796875 879.0980224609375 133.3185424804688 866.1162719726563 122.6050415039063 C 853.1026611328125 111.8653564453125 839.4226684570313 101.6356201171875 825.456298828125 92.20013427734375 C 811.4219970703125 82.71881103515625 796.7708129882813 73.81787109375 781.909423828125 65.74481201171875 C 766.94189453125 57.6138916015625 751.4088134765625 50.1312255859375 735.7415771484375 43.5045166015625 C 719.9285278320313 36.816162109375 703.602783203125 30.8408203125 687.218017578125 25.74462890625 C 670.647705078125 20.5908203125 653.61865234375 16.212158203125 636.6034545898438 12.7303466796875 C 619.3651123046875 9.2027587890625 601.721435546875 6.5101318359375 584.1625366210938 4.7269287109375 C 566.34521484375 2.91748046875 548.1757202148438 2 530.158935546875 2 M 530.158935546875 0 C 822.9575805664063 0 1060.31787109375 237.3602905273438 1060.31787109375 530.158935546875 C 1060.31787109375 822.9575805664063 822.9575805664063 1060.31787109375 530.158935546875 1060.31787109375 C 237.3602905273438 1060.31787109375 0 822.9575805664063 0 530.158935546875 C 0 237.3602905273438 237.3602905273438 0 530.158935546875 0 Z" stroke="none" fill="#fff"/>
            </g>
            <g id="Path_3223" data-name="Path 3223" transform="translate(-711.184 -147.337)" fill="none">
              <path d="M453.594,0C704.107,0,907.188,203.081,907.188,453.594S704.107,907.188,453.594,907.188,0,704.107,0,453.594,203.081,0,453.594,0Z" stroke="none"/>
              <path d="M 453.593994140625 2 C 438.1888122558594 2 422.6532897949219 2.78448486328125 407.418701171875 4.3316650390625 C 392.4052734375 5.8563232421875 377.3192749023438 8.15869140625 362.5798950195313 11.1748046875 C 348.031494140625 14.15185546875 333.4710693359375 17.895751953125 319.3030395507813 22.302490234375 C 305.2935180664063 26.65985107421875 291.3345947265625 31.7689208984375 277.8139038085938 37.4876708984375 C 251.0555419921875 48.8055419921875 225.246826171875 62.81396484375 201.1049194335938 79.1240234375 C 177.1917724609375 95.2794189453125 154.704833984375 113.8327026367188 134.268798828125 134.268798828125 C 113.8327026367188 154.704833984375 95.2794189453125 177.1917724609375 79.1240234375 201.1049194335938 C 62.81396484375 225.246826171875 48.8055419921875 251.0555419921875 37.4876708984375 277.8139038085938 C 31.7689208984375 291.3345947265625 26.65985107421875 305.2935180664063 22.302490234375 319.3030395507813 C 17.895751953125 333.4710693359375 14.15185546875 348.031494140625 11.1748046875 362.5798950195313 C 8.15869140625 377.3192749023438 5.8563232421875 392.4052734375 4.3316650390625 407.418701171875 C 2.78448486328125 422.6532897949219 2 438.1888122558594 2 453.593994140625 C 2 468.9991760253906 2.78448486328125 484.5346984863281 4.3316650390625 499.769287109375 C 5.8563232421875 514.78271484375 8.15869140625 529.8687133789063 11.1748046875 544.6080322265625 C 14.15185546875 559.156494140625 17.895751953125 573.7169189453125 22.302490234375 587.8849487304688 C 26.65985107421875 601.8944702148438 31.7689208984375 615.8533935546875 37.4876708984375 629.3741455078125 C 48.8055419921875 656.1324462890625 62.81396484375 681.9410400390625 79.1240234375 706.0830688476563 C 95.2794189453125 729.9962158203125 113.8328247070313 752.4830322265625 134.268798828125 772.919189453125 C 154.704833984375 793.3551635742188 177.1917724609375 811.9085693359375 201.1049194335938 828.06396484375 C 225.246826171875 844.3740234375 251.0555419921875 858.3824462890625 277.8139038085938 869.7003173828125 C 291.3345947265625 875.4190673828125 305.2935180664063 880.5281372070313 319.3030395507813 884.885498046875 C 333.4710693359375 889.292236328125 348.031494140625 893.0361328125 362.5798950195313 896.01318359375 C 377.3192749023438 899.029296875 392.4052734375 901.3316650390625 407.418701171875 902.8563232421875 C 422.6532897949219 904.4035034179688 438.1888122558594 905.18798828125 453.593994140625 905.18798828125 C 468.9991760253906 905.18798828125 484.5346984863281 904.4035034179688 499.769287109375 902.8563232421875 C 514.78271484375 901.3316650390625 529.8687133789063 899.029296875 544.6080322265625 896.01318359375 C 559.156494140625 893.0361328125 573.7169189453125 889.292236328125 587.8849487304688 884.885498046875 C 601.8944702148438 880.5281372070313 615.8533935546875 875.4190673828125 629.3741455078125 869.7003173828125 C 656.1324462890625 858.3824462890625 681.9410400390625 844.3740234375 706.0830688476563 828.06396484375 C 729.9962158203125 811.9085693359375 752.4830322265625 793.3551635742188 772.919189453125 772.919189453125 C 793.3551635742188 752.4830322265625 811.9085693359375 729.9962158203125 828.06396484375 706.0830688476563 C 844.3740234375 681.9410400390625 858.3824462890625 656.1324462890625 869.7003173828125 629.3741455078125 C 875.4190673828125 615.8533935546875 880.5281372070313 601.8944702148438 884.885498046875 587.8849487304688 C 889.292236328125 573.7169189453125 893.0361328125 559.156494140625 896.01318359375 544.6080322265625 C 899.029296875 529.8687133789063 901.3316650390625 514.78271484375 902.8563232421875 499.769287109375 C 904.4035034179688 484.5346984863281 905.18798828125 468.9991760253906 905.18798828125 453.593994140625 C 905.18798828125 438.1888122558594 904.4035034179688 422.6532897949219 902.8563232421875 407.418701171875 C 901.3316650390625 392.4052734375 899.029296875 377.3192749023438 896.01318359375 362.5798950195313 C 893.0361328125 348.031494140625 889.292236328125 333.4710693359375 884.885498046875 319.3030395507813 C 880.5281372070313 305.2935180664063 875.4190673828125 291.3345947265625 869.7003173828125 277.8139038085938 C 858.3824462890625 251.0555419921875 844.3740234375 225.246826171875 828.06396484375 201.1049194335938 C 811.9085693359375 177.1917724609375 793.3551635742188 154.704833984375 772.919189453125 134.268798828125 C 752.4830322265625 113.8328247070313 729.9962158203125 95.2794189453125 706.0830688476563 79.1240234375 C 681.9410400390625 62.81396484375 656.1324462890625 48.8055419921875 629.3741455078125 37.4876708984375 C 615.8533935546875 31.7689208984375 601.8944702148438 26.65985107421875 587.8849487304688 22.302490234375 C 573.7169189453125 17.895751953125 559.156494140625 14.15185546875 544.6080322265625 11.1748046875 C 529.8687133789063 8.15869140625 514.78271484375 5.8563232421875 499.769287109375 4.3316650390625 C 484.5346984863281 2.78448486328125 468.9991760253906 2 453.593994140625 2 M 453.593994140625 0 C 704.10693359375 0 907.18798828125 203.0809326171875 907.18798828125 453.593994140625 C 907.18798828125 704.10693359375 704.10693359375 907.18798828125 453.593994140625 907.18798828125 C 203.0809326171875 907.18798828125 0 704.10693359375 0 453.593994140625 C 0 203.0809326171875 203.0809326171875 0 453.593994140625 0 Z" stroke="none" fill="#fff"/>
            </g>
          </g>
          <g id="Group_3697" data-name="Group 3697">
            <text id="Q1_2022" data-name="Q1 2022" transform="translate(499 3392.96)" fill="#a2a2a2" font-size="20" font-family="Raleway-Bold, Raleway" font-weight="700"><tspan x="0" y="0">Q1 2022</tspan></text>
            <g id="Group_3696" data-name="Group 3696">
              <g id="Ellipse_698" data-name="Ellipse 698" transform="translate(584 3399)" fill="#212a38" stroke="#fff" stroke-width="2">
                <circle cx="7.5" cy="7.5" r="7.5" stroke="none"/>
                <circle cx="7.5" cy="7.5" r="6.5" fill="none"/>
              </g>
              <g id="Ellipse_700" data-name="Ellipse 700" transform="translate(655 3475)" fill="#212a38" stroke="#fff" stroke-width="2">
                <circle cx="7.5" cy="7.5" r="7.5" stroke="none"/>
                <circle cx="7.5" cy="7.5" r="6.5" fill="none"/>
              </g>
              <g id="Ellipse_701" data-name="Ellipse 701" transform="translate(655 3322)" fill="#212a38" stroke="#fff" stroke-width="2">
                <circle cx="7.5" cy="7.5" r="7.5" stroke="none"/>
                <circle cx="7.5" cy="7.5" r="6.5" fill="none"/>
              </g>
              <g id="Ellipse_702" data-name="Ellipse 702" transform="translate(609 3169)" fill="#212a38" stroke="#fff" stroke-width="2">
                <circle cx="7.5" cy="7.5" r="7.5" stroke="none"/>
                <circle cx="7.5" cy="7.5" r="6.5" fill="none"/>
              </g>
              <g id="Group_3695" data-name="Group 3695">
                <text id="To_Be_Announced" data-name="To Be 
Announced" transform="translate(475 3405.04)" fill="#a2a2a2" font-size="12" font-family="Raleway-Regular, Raleway" letter-spacing="0.01em"><tspan x="68.332" y="11">To Be </tspan><tspan x="34.636" y="27">Announced</tspan></text>
                <text id="Q1_2021" data-name="Q1 2021" transform="translate(649 3643)" fill="#fff" font-size="20" font-family="Raleway-Bold, Raleway" font-weight="700" letter-spacing="0.01em"><tspan x="0" y="0">Q1 2021</tspan></text>
                <text id="Q4_2021" data-name="Q4 2021" transform="translate(649 3184)" fill="#a2a2a2" font-size="20" font-family="Raleway-Bold, Raleway" font-weight="700" letter-spacing="0.01em"><tspan x="0" y="0">Q4 2021</tspan></text>
                <text id="Q2_2021" data-name="Q2 2021" transform="translate(695 3490)" fill="#a2a2a2" font-size="20" font-family="Raleway-Bold, Raleway" font-weight="700" letter-spacing="0.01em"><tspan x="0" y="0">Q2 2021</tspan></text>
                <text id="Q3_2021" data-name="Q3 2021" transform="translate(695 3337)" fill="#a2a2a2" font-size="20" font-family="Raleway-Bold, Raleway" font-weight="700" letter-spacing="0.01em"><tspan x="0" y="0">Q3 2021</tspan></text>
              </g>
            </g>
          </g>
        </g>
        <g id="Group_3699" data-name="Group 3699">
          <text id="We_Are_Here" data-name="We Are Here" transform="translate(737 3560)" fill="#fe0" font-size="13" font-family="Raleway-Bold, Raleway" font-weight="700" opacity="0"><tspan x="0" y="12">We Are Here</tspan></text>
          <circle id="Ellipse_699" data-name="Ellipse 699" cx="7.5" cy="7.5" r="7.5" transform="translate(608 3629)" fill="#fe0"/>
        </g>
      </g>
      <g id="Group_3700" data-name="Group 3700">
        <g id="Group_3638" data-name="Group 3638" transform="matrix(0.899, -0.438, 0.438, 0.899, 160.96, 4537.514)">
          <path id="Path_3219" data-name="Path 3219" d="M29.955,0A29.955,29.955,0,1,1,0,29.955,29.955,29.955,0,0,1,29.955,0Z" transform="translate(-8.265 -8.265)" fill="#19202b"/>
          <g id="Path_3218" data-name="Path 3218" transform="translate(-9 -9)" fill="none">
            <path d="M30.69,0A30.69,30.69,0,1,1,0,30.69,30.69,30.69,0,0,1,30.69,0Z" stroke="none"/>
            <path d="M 30.68962669372559 1.999996185302734 C 26.81566619873047 1.999996185302734 23.05865859985352 2.758266448974609 19.52294540405273 4.253746032714844 C 16.10684585571289 5.698635101318359 13.03844833374023 7.767547607421875 10.40299606323242 10.40299606323242 C 7.767547607421875 13.03844833374023 5.698635101318359 16.10684585571289 4.253746032714844 19.52294540405273 C 2.758266448974609 23.05865859985352 1.999996185302734 26.81566619873047 1.999996185302734 30.68962669372559 C 1.999996185302734 34.5635871887207 2.758266448974609 38.32059478759766 4.253746032714844 41.85630798339844 C 5.698635101318359 45.27240753173828 7.767547607421875 48.34080505371094 10.40299606323242 50.97625732421875 C 13.03844833374023 53.6117057800293 16.10684585571289 55.68061828613281 19.52294540405273 57.12550735473633 C 23.05865859985352 58.62098693847656 26.81566619873047 59.37925720214844 30.68962669372559 59.37925720214844 C 34.5635871887207 59.37925720214844 38.32059478759766 58.62098693847656 41.85630798339844 57.12550735473633 C 45.27240753173828 55.68061828613281 48.34080505371094 53.6117057800293 50.97625732421875 50.97625732421875 C 53.6117057800293 48.34080505371094 55.68061828613281 45.27240753173828 57.12550735473633 41.85630798339844 C 58.62098693847656 38.32059478759766 59.37925720214844 34.5635871887207 59.37925720214844 30.68962669372559 C 59.37925720214844 26.81566619873047 58.62098693847656 23.05865859985352 57.12550735473633 19.52294540405273 C 55.68061828613281 16.10684585571289 53.6117057800293 13.03844833374023 50.97625732421875 10.40299606323242 C 48.34080505371094 7.767547607421875 45.27240753173828 5.698635101318359 41.85630798339844 4.253746032714844 C 38.32059478759766 2.758266448974609 34.5635871887207 1.999996185302734 30.68962669372559 1.999996185302734 M 30.68962669372559 -3.814697265625e-06 C 47.6390380859375 -3.814697265625e-06 61.37925720214844 13.74021530151367 61.37925720214844 30.68962669372559 C 61.37925720214844 47.6390380859375 47.6390380859375 61.37925720214844 30.68962669372559 61.37925720214844 C 13.74021530151367 61.37925720214844 -3.814697265625e-06 47.6390380859375 -3.814697265625e-06 30.68962669372559 C -3.814697265625e-06 13.74021530151367 13.74021530151367 -3.814697265625e-06 30.68962669372559 -3.814697265625e-06 Z" stroke="none" fill="#fe0"/>
          </g>
          <g id="Group_3655" data-name="Group 3655" transform="translate(30.879 -1.573) rotate(45)">
            <path id="Path_3286" data-name="Path 3286" d="M.586,0A.586.586,0,0,0,0,.586V2.931a.586.586,0,0,0,1.172,0V.586A.586.586,0,0,0,.586,0Z" transform="translate(15.227 32.374)" fill="#fe0"/>
            <path id="Path_3287" data-name="Path 3287" d="M.587,0A.586.586,0,0,0,0,.586V2.93a.586.586,0,1,0,1.172,0V.586A.586.586,0,0,0,.587,0Z" transform="translate(3.504 32.374)" fill="#fe0"/>
            <path id="Path_3288" data-name="Path 3288" d="M.587,0A.586.586,0,0,0,0,.586V6.2a.586.586,0,1,0,1.172,0V.586A.586.586,0,0,0,.587,0Z" transform="translate(12.882 35.891)" fill="#fe0"/>
            <path id="Path_3289" data-name="Path 3289" d="M.587,0A.586.586,0,0,0,0,.586v9.963a.586.586,0,0,0,1.172,0V.586A.586.586,0,0,0,.587,0Z" transform="translate(9.567 34.76)" fill="#fe0"/>
            <path id="Path_3290" data-name="Path 3290" d="M.586,0A.586.586,0,0,0,0,.586V6.2a.586.586,0,0,0,1.172,0V.586A.586.586,0,0,0,.586,0Z" transform="translate(5.849 35.891)" fill="#fe0"/>
            <path id="Path_3291" data-name="Path 3291" d="M19.784,17.6l-3.415-4.426v-.633a15.834,15.834,0,0,0-1.6-6.908A15.833,15.833,0,0,0,10.306.122a.576.576,0,0,0-.709,0A15.746,15.746,0,0,0,3.535,12.538v.633L.12,17.6a.577.577,0,0,0-.12.352v7.56a.576.576,0,0,0,.9.475l2.632-1.809v4.28H5.584a19.9,19.9,0,0,0,1,1.928,1.659,1.659,0,0,0,.77.67,5.549,5.549,0,0,0-.33,1.908c0,.027,0,.054,0,.082h5.858c0-.027,0-.054,0-.081a5.552,5.552,0,0,0-.33-1.908,1.656,1.656,0,0,0,.77-.671,19.886,19.886,0,0,0,1-1.928h2.049v-4.28L19,25.984a.576.576,0,0,0,.9-.475v-7.56A.576.576,0,0,0,19.784,17.6ZM3.535,17.331v5.444L1.153,24.413V18.145l2.382-3.088ZM9.952,1.316a14.708,14.708,0,0,1,3.325,3.956,5.749,5.749,0,0,1-6.649,0A14.706,14.706,0,0,1,9.952,1.316ZM8.325,31.87a3.742,3.742,0,0,1,.232-.668h2.789a3.754,3.754,0,0,1,.232.668Zm3.988-2.085a.55.55,0,0,1-.48.245H8.07a.55.55,0,0,1-.48-.244c-.249-.422-.487-.867-.712-1.331h6.148C12.8,28.919,12.563,29.364,12.314,29.785Zm2.9-2.484H4.688V12.538A14.675,14.675,0,0,1,6.09,6.3a6.9,6.9,0,0,0,7.725,0,14.674,14.674,0,0,1,1.4,6.237Zm3.535-2.888-2.382-1.638V15.058l2.382,3.088Z" transform="translate(0 0)" fill="#fe0"/>
          </g>
        </g>
      </g>
    </g>
    <text id="We_Are_Here-2" data-name="We Are Here" transform="translate(240 4540)" fill="#fe0" font-size="13" font-family="Raleway-Bold, Raleway" font-weight="700"><tspan x="0" y="12">We Are Here</tspan></text>
  </g>
</svg>
