<svg xmlns="http://www.w3.org/2000/svg" width="380" height="18.293" viewBox="0 0 380 18.293">
  <g id="Group_3663" data-name="Group 3663" transform="translate(0 -2765.89)">
    <line id="Line_5" data-name="Line 5" x2="380" transform="translate(0 2775.036)" fill="none" stroke="#fff" stroke-width="2"/>
    <g id="Path_3247" data-name="Path 3247" transform="translate(234.357 2784.183) rotate(-90)" fill="#19212e">
      <path d="M 9.146484375 17.29296493530273 C 4.654504299163818 17.29296493530273 1.000004410743713 13.63846397399902 1.000004410743713 9.146484375 C 1.000004410743713 4.654504299163818 4.654504299163818 1.000004410743713 9.146484375 1.000004410743713 C 13.63846397399902 1.000004410743713 17.29296493530273 4.654504299163818 17.29296493530273 9.146484375 C 17.29296493530273 13.63846397399902 13.63846397399902 17.29296493530273 9.146484375 17.29296493530273 Z" stroke="none"/>
      <path d="M 9.146484375 2.000003814697266 C 5.205904006958008 2.000003814697266 2.000003814697266 5.205904006958008 2.000003814697266 9.146484375 C 2.000003814697266 13.08706474304199 5.205904006958008 16.29296493530273 9.146484375 16.29296493530273 C 13.08706474304199 16.29296493530273 16.29296493530273 13.08706474304199 16.29296493530273 9.146484375 C 16.29296493530273 5.205904006958008 13.08706474304199 2.000003814697266 9.146484375 2.000003814697266 M 9.146484375 3.814697265625e-06 C 14.19794464111328 3.814697265625e-06 18.29296493530273 4.095024108886719 18.29296493530273 9.146484375 C 18.29296493530273 14.19794464111328 14.19794464111328 18.29296493530273 9.146484375 18.29296493530273 C 4.095024108886719 18.29296493530273 3.814697265625e-06 14.19794464111328 3.814697265625e-06 9.146484375 C 3.814697265625e-06 4.095024108886719 4.095024108886719 3.814697265625e-06 9.146484375 3.814697265625e-06 Z" stroke="none" fill="#fe0"/>
    </g>
    <g id="Ellipse_704" data-name="Ellipse 704" transform="translate(169.5 2780.772) rotate(-90)" fill="#19212e" stroke="#fff" stroke-width="2">
      <circle cx="5.82" cy="5.82" r="5.82" stroke="none"/>
      <circle cx="5.82" cy="5.82" r="4.82" fill="none"/>
    </g>
    <g id="Ellipse_705" data-name="Ellipse 705" transform="translate(262.628 2780.772) rotate(-90)" fill="#19212e" stroke="#fff" stroke-width="2">
      <circle cx="5.82" cy="5.82" r="5.82" stroke="none"/>
      <circle cx="5.82" cy="5.82" r="4.82" fill="none"/>
    </g>
    <g id="Ellipse_706" data-name="Ellipse 706" transform="translate(212.739 2780.772) rotate(-90)" fill="#19212e" stroke="#fff" stroke-width="2">
      <circle cx="5.82" cy="5.82" r="5.82" stroke="none"/>
      <circle cx="5.82" cy="5.82" r="4.82" fill="none"/>
    </g>
    <g id="Ellipse_707" data-name="Ellipse 707" transform="translate(284.247 2780.772) rotate(-90)" fill="#19212e" stroke="#fff" stroke-width="2">
      <circle cx="5.82" cy="5.82" r="5.82" stroke="none"/>
      <circle cx="5.82" cy="5.82" r="4.82" fill="none"/>
    </g>
    <g id="Ellipse_708" data-name="Ellipse 708" transform="translate(191.119 2780.772) rotate(-90)" fill="#19212e" stroke="#fff" stroke-width="2">
      <circle cx="5.82" cy="5.82" r="5.82" stroke="none"/>
      <circle cx="5.82" cy="5.82" r="4.82" fill="none"/>
    </g>
  </g>
</svg>
