<svg xmlns="http://www.w3.org/2000/svg" xmlns:xlink="http://www.w3.org/1999/xlink" width="360" height="613" viewBox="0 0 360 613">
  <defs>
    <clipPath id="clip-path">
      <rect id="Rectangle_246" data-name="Rectangle 246" width="360" height="613" transform="translate(58.248)" fill="#fff" stroke="#707070" stroke-width="1"/>
    </clipPath>
    <filter id="We_Are_Here" x="232.5" y="140.501" width="112" height="25" filterUnits="userSpaceOnUse">
      <feOffset input="SourceAlpha"/>
      <feGaussianBlur stdDeviation="1.5" result="blur"/>
      <feFlood flood-color="#19202b"/>
      <feComposite operator="in" in2="blur"/>
      <feComposite in="SourceGraphic"/>
    </filter>
  </defs>
  <g id="mobile_road_map" transform="translate(0)">
    <g id="Mask_Group_14" data-name="Mask Group 14" transform="translate(-58.248)" clip-path="url(#clip-path)">
      <g id="Path_3412" data-name="Path 3412" transform="translate(-787.749 -223.901)" fill="none">
        <path d="M530.159,0c292.8,0,530.159,237.36,530.159,530.159s-237.36,530.159-530.159,530.159S0,822.958,0,530.159,237.36,0,530.159,0Z" stroke="none"/>
        <path d="M 530.158935546875 2 C 512.1421508789062 2 493.97265625 2.91748046875 476.1553344726562 4.7269287109375 C 458.5963745117188 6.5101318359375 440.9528198242188 9.2027587890625 423.7144165039062 12.7303466796875 C 406.69921875 16.212158203125 389.670166015625 20.5908203125 373.099853515625 25.74462890625 C 356.715087890625 30.8408203125 340.3893432617188 36.816162109375 324.5762939453125 43.5045166015625 C 308.9090576171875 50.1312255859375 293.3759765625 57.6138916015625 278.4083862304688 65.74481201171875 C 263.5470581054688 73.81787109375 248.8958740234375 82.71881103515625 234.861572265625 92.20013427734375 C 220.8952026367188 101.6356201171875 207.2152099609375 111.8653564453125 194.2015991210938 122.6050415039062 C 181.2198486328125 133.3185424804688 168.6005249023438 144.787841796875 156.6941528320312 156.6941528320312 C 144.787841796875 168.6005249023438 133.3185424804688 181.2198486328125 122.6050415039062 194.2015991210938 C 111.8653564453125 207.2152099609375 101.6356201171875 220.8952026367188 92.20013427734375 234.861572265625 C 82.71881103515625 248.8958740234375 73.81787109375 263.5470581054688 65.74481201171875 278.4083862304688 C 57.6138916015625 293.3759765625 50.1312255859375 308.9090576171875 43.5045166015625 324.5762939453125 C 36.816162109375 340.3893432617188 30.8408203125 356.715087890625 25.74462890625 373.099853515625 C 20.5908203125 389.670166015625 16.212158203125 406.69921875 12.7303466796875 423.7144165039062 C 9.2027587890625 440.9528198242188 6.5101318359375 458.5963745117188 4.7269287109375 476.1553344726562 C 2.91748046875 493.97265625 2 512.1421508789062 2 530.158935546875 C 2 548.1757202148438 2.91748046875 566.34521484375 4.7269287109375 584.1625366210938 C 6.5101318359375 601.721435546875 9.2027587890625 619.3651123046875 12.7303466796875 636.6034545898438 C 16.212158203125 653.61865234375 20.5908203125 670.647705078125 25.74462890625 687.218017578125 C 30.8408203125 703.602783203125 36.816162109375 719.9285278320312 43.5045166015625 735.7415771484375 C 50.1312255859375 751.4088134765625 57.6138916015625 766.94189453125 65.74481201171875 781.909423828125 C 73.81787109375 796.7708129882812 82.71881103515625 811.4219970703125 92.20013427734375 825.456298828125 C 101.6356201171875 839.4226684570312 111.8653564453125 853.1026611328125 122.6050415039062 866.1162719726562 C 133.3185424804688 879.0980224609375 144.787841796875 891.7173461914062 156.6941528320312 903.6237182617188 C 168.6005249023438 915.530029296875 181.2198486328125 926.9993286132812 194.2015991210938 937.7127685546875 C 207.2152099609375 948.4525146484375 220.8952026367188 958.6822509765625 234.861572265625 968.1177368164062 C 248.8958740234375 977.5990600585938 263.5470581054688 986.5 278.4083862304688 994.5730590820312 C 293.3759765625 1002.703979492188 308.9090576171875 1010.186645507812 324.5762939453125 1016.813354492188 C 340.3893432617188 1023.501708984375 356.715087890625 1029.47705078125 373.099853515625 1034.5732421875 C 389.670166015625 1039.72705078125 406.69921875 1044.105712890625 423.7144165039062 1047.587524414062 C 440.9528198242188 1051.115112304688 458.5963745117188 1053.807739257812 476.1553344726562 1055.590942382812 C 493.97265625 1057.400390625 512.1421508789062 1058.31787109375 530.158935546875 1058.31787109375 C 548.1757202148438 1058.31787109375 566.34521484375 1057.400390625 584.1625366210938 1055.590942382812 C 601.721435546875 1053.807739257812 619.3651123046875 1051.115112304688 636.6034545898438 1047.587524414062 C 653.61865234375 1044.105712890625 670.647705078125 1039.72705078125 687.218017578125 1034.5732421875 C 703.602783203125 1029.47705078125 719.9285278320312 1023.501708984375 735.7415771484375 1016.813354492188 C 751.4088134765625 1010.186645507812 766.94189453125 1002.703979492188 781.909423828125 994.5730590820312 C 796.7708129882812 986.5 811.4219970703125 977.5990600585938 825.456298828125 968.1177368164062 C 839.4226684570312 958.6822509765625 853.1026611328125 948.4525146484375 866.1162719726562 937.7127685546875 C 879.0980224609375 926.9993286132812 891.7173461914062 915.530029296875 903.6237182617188 903.6237182617188 C 915.530029296875 891.7173461914062 926.9993286132812 879.0980224609375 937.7127685546875 866.1162719726562 C 948.4525146484375 853.1026611328125 958.6822509765625 839.4226684570312 968.1177368164062 825.456298828125 C 977.5990600585938 811.4219970703125 986.5 796.7708129882812 994.5730590820312 781.909423828125 C 1002.703979492188 766.94189453125 1010.186645507812 751.4088134765625 1016.813354492188 735.7415771484375 C 1023.501708984375 719.9285278320312 1029.47705078125 703.602783203125 1034.5732421875 687.218017578125 C 1039.72705078125 670.647705078125 1044.105712890625 653.61865234375 1047.587524414062 636.6034545898438 C 1051.115112304688 619.3651123046875 1053.807739257812 601.721435546875 1055.590942382812 584.1625366210938 C 1057.400390625 566.34521484375 1058.31787109375 548.1757202148438 1058.31787109375 530.158935546875 C 1058.31787109375 512.1421508789062 1057.400390625 493.97265625 1055.590942382812 476.1553344726562 C 1053.807739257812 458.5963745117188 1051.115112304688 440.9528198242188 1047.587524414062 423.7144165039062 C 1044.105712890625 406.69921875 1039.72705078125 389.670166015625 1034.5732421875 373.099853515625 C 1029.47705078125 356.715087890625 1023.501708984375 340.3893432617188 1016.813354492188 324.5762939453125 C 1010.186645507812 308.9090576171875 1002.703979492188 293.3759765625 994.5730590820312 278.4083862304688 C 986.5 263.5470581054688 977.5990600585938 248.8958740234375 968.1177368164062 234.861572265625 C 958.6822509765625 220.8952026367188 948.4525146484375 207.2152099609375 937.7127685546875 194.2015991210938 C 926.9993286132812 181.2198486328125 915.530029296875 168.6005249023438 903.6237182617188 156.6941528320312 C 891.7173461914062 144.787841796875 879.0980224609375 133.3185424804688 866.1162719726562 122.6050415039062 C 853.1026611328125 111.8653564453125 839.4226684570312 101.6356201171875 825.456298828125 92.20013427734375 C 811.4219970703125 82.71881103515625 796.7708129882812 73.81787109375 781.909423828125 65.74481201171875 C 766.94189453125 57.6138916015625 751.4088134765625 50.1312255859375 735.7415771484375 43.5045166015625 C 719.9285278320312 36.816162109375 703.602783203125 30.8408203125 687.218017578125 25.74462890625 C 670.647705078125 20.5908203125 653.61865234375 16.212158203125 636.6034545898438 12.7303466796875 C 619.3651123046875 9.2027587890625 601.721435546875 6.5101318359375 584.1625366210938 4.7269287109375 C 566.34521484375 2.91748046875 548.1757202148438 2 530.158935546875 2 M 530.158935546875 0 C 822.9575805664062 0 1060.31787109375 237.3602905273438 1060.31787109375 530.158935546875 C 1060.31787109375 822.9575805664062 822.9575805664062 1060.31787109375 530.158935546875 1060.31787109375 C 237.3602905273438 1060.31787109375 0 822.9575805664062 0 530.158935546875 C 0 237.3602905273438 237.3602905273438 0 530.158935546875 0 Z" stroke="none" fill="#fff"/>
      </g>
      <g id="Path_3413" data-name="Path 3413" transform="translate(-711.184 -147.337)" fill="none">
        <path d="M453.594,0C704.107,0,907.188,203.081,907.188,453.594S704.107,907.188,453.594,907.188,0,704.107,0,453.594,203.081,0,453.594,0Z" stroke="none"/>
        <path d="M 453.593994140625 2 C 438.1888122558594 2 422.6532897949219 2.78448486328125 407.418701171875 4.3316650390625 C 392.4052734375 5.8563232421875 377.3192749023438 8.15869140625 362.5798950195312 11.1748046875 C 348.031494140625 14.15185546875 333.4710693359375 17.895751953125 319.3030395507812 22.302490234375 C 305.2935180664062 26.65985107421875 291.3345947265625 31.7689208984375 277.8139038085938 37.4876708984375 C 251.0555419921875 48.8055419921875 225.246826171875 62.81396484375 201.1049194335938 79.1240234375 C 177.1917724609375 95.2794189453125 154.704833984375 113.8327026367188 134.268798828125 134.268798828125 C 113.8327026367188 154.704833984375 95.2794189453125 177.1917724609375 79.1240234375 201.1049194335938 C 62.81396484375 225.246826171875 48.8055419921875 251.0555419921875 37.4876708984375 277.8139038085938 C 31.7689208984375 291.3345947265625 26.65985107421875 305.2935180664062 22.302490234375 319.3030395507812 C 17.895751953125 333.4710693359375 14.15185546875 348.031494140625 11.1748046875 362.5798950195312 C 8.15869140625 377.3192749023438 5.8563232421875 392.4052734375 4.3316650390625 407.418701171875 C 2.78448486328125 422.6532897949219 2 438.1888122558594 2 453.593994140625 C 2 468.9991760253906 2.78448486328125 484.5346984863281 4.3316650390625 499.769287109375 C 5.8563232421875 514.78271484375 8.15869140625 529.8687133789062 11.1748046875 544.6080322265625 C 14.15185546875 559.156494140625 17.895751953125 573.7169189453125 22.302490234375 587.8849487304688 C 26.65985107421875 601.8944702148438 31.7689208984375 615.8533935546875 37.4876708984375 629.3741455078125 C 48.8055419921875 656.1324462890625 62.81396484375 681.9410400390625 79.1240234375 706.0830688476562 C 95.2794189453125 729.9962158203125 113.8328247070312 752.4830322265625 134.268798828125 772.919189453125 C 154.704833984375 793.3551635742188 177.1917724609375 811.9085693359375 201.1049194335938 828.06396484375 C 225.246826171875 844.3740234375 251.0555419921875 858.3824462890625 277.8139038085938 869.7003173828125 C 291.3345947265625 875.4190673828125 305.2935180664062 880.5281372070312 319.3030395507812 884.885498046875 C 333.4710693359375 889.292236328125 348.031494140625 893.0361328125 362.5798950195312 896.01318359375 C 377.3192749023438 899.029296875 392.4052734375 901.3316650390625 407.418701171875 902.8563232421875 C 422.6532897949219 904.4035034179688 438.1888122558594 905.18798828125 453.593994140625 905.18798828125 C 468.9991760253906 905.18798828125 484.5346984863281 904.4035034179688 499.769287109375 902.8563232421875 C 514.78271484375 901.3316650390625 529.8687133789062 899.029296875 544.6080322265625 896.01318359375 C 559.156494140625 893.0361328125 573.7169189453125 889.292236328125 587.8849487304688 884.885498046875 C 601.8944702148438 880.5281372070312 615.8533935546875 875.4190673828125 629.3741455078125 869.7003173828125 C 656.1324462890625 858.3824462890625 681.9410400390625 844.3740234375 706.0830688476562 828.06396484375 C 729.9962158203125 811.9085693359375 752.4830322265625 793.3551635742188 772.919189453125 772.919189453125 C 793.3551635742188 752.4830322265625 811.9085693359375 729.9962158203125 828.06396484375 706.0830688476562 C 844.3740234375 681.9410400390625 858.3824462890625 656.1324462890625 869.7003173828125 629.3741455078125 C 875.4190673828125 615.8533935546875 880.5281372070312 601.8944702148438 884.885498046875 587.8849487304688 C 889.292236328125 573.7169189453125 893.0361328125 559.156494140625 896.01318359375 544.6080322265625 C 899.029296875 529.8687133789062 901.3316650390625 514.78271484375 902.8563232421875 499.769287109375 C 904.4035034179688 484.5346984863281 905.18798828125 468.9991760253906 905.18798828125 453.593994140625 C 905.18798828125 438.1888122558594 904.4035034179688 422.6532897949219 902.8563232421875 407.418701171875 C 901.3316650390625 392.4052734375 899.029296875 377.3192749023438 896.01318359375 362.5798950195312 C 893.0361328125 348.031494140625 889.292236328125 333.4710693359375 884.885498046875 319.3030395507812 C 880.5281372070312 305.2935180664062 875.4190673828125 291.3345947265625 869.7003173828125 277.8139038085938 C 858.3824462890625 251.0555419921875 844.3740234375 225.246826171875 828.06396484375 201.1049194335938 C 811.9085693359375 177.1917724609375 793.3551635742188 154.704833984375 772.919189453125 134.268798828125 C 752.4830322265625 113.8328247070312 729.9962158203125 95.2794189453125 706.0830688476562 79.1240234375 C 681.9410400390625 62.81396484375 656.1324462890625 48.8055419921875 629.3741455078125 37.4876708984375 C 615.8533935546875 31.7689208984375 601.8944702148438 26.65985107421875 587.8849487304688 22.302490234375 C 573.7169189453125 17.895751953125 559.156494140625 14.15185546875 544.6080322265625 11.1748046875 C 529.8687133789062 8.15869140625 514.78271484375 5.8563232421875 499.769287109375 4.3316650390625 C 484.5346984863281 2.78448486328125 468.9991760253906 2 453.593994140625 2 M 453.593994140625 0 C 704.10693359375 0 907.18798828125 203.0809326171875 907.18798828125 453.593994140625 C 907.18798828125 704.10693359375 704.10693359375 907.18798828125 453.593994140625 907.18798828125 C 203.0809326171875 907.18798828125 0 704.10693359375 0 453.593994140625 C 0 203.0809326171875 203.0809326171875 0 453.593994140625 0 Z" stroke="none" fill="#fff"/>
      </g>
    </g>
    <circle id="Ellipse_773" data-name="Ellipse 773" cx="7.5" cy="7.5" r="7.5" transform="translate(154 69)" fill="#fe0"/>
    <g id="Path_3414" data-name="Path 3414" transform="translate(149.977 137.447) rotate(-24)" fill="#19202b">
      <path d="M 30.68962669372559 60.37925720214844 C 26.68111610412598 60.37925720214844 22.79303741455078 59.59440612792969 19.13339614868164 58.04650497436523 C 15.5980863571167 56.55120849609375 12.42285633087158 54.41032791137695 9.695886611938477 51.68336486816406 C 6.968926906585693 48.95639801025391 4.828046798706055 45.78116607666016 3.332746744155884 42.24585723876953 C 1.784846663475037 38.58621597290039 0.9999967217445374 34.69813537597656 0.9999967217445374 30.68962669372559 C 0.9999967217445374 26.68111610412598 1.784846663475037 22.79303741455078 3.332746744155884 19.13339614868164 C 4.828046798706055 15.5980863571167 6.968926906585693 12.42285633087158 9.695886611938477 9.695886611938477 C 12.42285633087158 6.968926906585693 15.5980863571167 4.828046798706055 19.13339614868164 3.332746744155884 C 22.79303741455078 1.784846663475037 26.68111610412598 0.9999967217445374 30.68962669372559 0.9999967217445374 C 34.69813537597656 0.9999967217445374 38.58621597290039 1.784846663475037 42.24585723876953 3.332746744155884 C 45.78116607666016 4.828046798706055 48.95639801025391 6.968926906585693 51.68336486816406 9.695886611938477 C 54.41032791137695 12.42285633087158 56.55120849609375 15.5980863571167 58.04650497436523 19.13339614868164 C 59.59440612792969 22.79303741455078 60.37925720214844 26.68111610412598 60.37925720214844 30.68962669372559 C 60.37925720214844 34.69813537597656 59.59440612792969 38.58621597290039 58.04650497436523 42.24585723876953 C 56.55120849609375 45.78116607666016 54.41032791137695 48.95639801025391 51.68336486816406 51.68336486816406 C 48.95639801025391 54.41032791137695 45.78116607666016 56.55120849609375 42.24585723876953 58.04650497436523 C 38.58621597290039 59.59440612792969 34.69813537597656 60.37925720214844 30.68962669372559 60.37925720214844 Z" stroke="none"/>
      <path d="M 30.68962669372559 1.999996185302734 C 26.81566619873047 1.999996185302734 23.05865859985352 2.758266448974609 19.52294540405273 4.253746032714844 C 16.10684585571289 5.698635101318359 13.03844833374023 7.767547607421875 10.40299606323242 10.40299606323242 C 7.767547607421875 13.03844833374023 5.698635101318359 16.10684585571289 4.253746032714844 19.52294540405273 C 2.758266448974609 23.05865859985352 1.999996185302734 26.81566619873047 1.999996185302734 30.68962669372559 C 1.999996185302734 34.5635871887207 2.758266448974609 38.32059478759766 4.253746032714844 41.85630798339844 C 5.698635101318359 45.27240753173828 7.767547607421875 48.34080505371094 10.40299606323242 50.97625732421875 C 13.03844833374023 53.6117057800293 16.10684585571289 55.68061828613281 19.52294540405273 57.12550735473633 C 23.05865859985352 58.62098693847656 26.81566619873047 59.37925720214844 30.68962669372559 59.37925720214844 C 34.5635871887207 59.37925720214844 38.32059478759766 58.62098693847656 41.85630798339844 57.12550735473633 C 45.27240753173828 55.68061828613281 48.34080505371094 53.6117057800293 50.97625732421875 50.97625732421875 C 53.6117057800293 48.34080505371094 55.68061828613281 45.27240753173828 57.12550735473633 41.85630798339844 C 58.62098693847656 38.32059478759766 59.37925720214844 34.5635871887207 59.37925720214844 30.68962669372559 C 59.37925720214844 26.81566619873047 58.62098693847656 23.05865859985352 57.12550735473633 19.52294540405273 C 55.68061828613281 16.10684585571289 53.6117057800293 13.03844833374023 50.97625732421875 10.40299606323242 C 48.34080505371094 7.767547607421875 45.27240753173828 5.698635101318359 41.85630798339844 4.253746032714844 C 38.32059478759766 2.758266448974609 34.5635871887207 1.999996185302734 30.68962669372559 1.999996185302734 M 30.68962669372559 -3.814697265625e-06 C 47.6390380859375 -3.814697265625e-06 61.37925720214844 13.74021530151367 61.37925720214844 30.68962669372559 C 61.37925720214844 47.6390380859375 47.6390380859375 61.37925720214844 30.68962669372559 61.37925720214844 C 13.74021530151367 61.37925720214844 -3.814697265625e-06 47.6390380859375 -3.814697265625e-06 30.68962669372559 C -3.814697265625e-06 13.74021530151367 13.74021530151367 -3.814697265625e-06 30.68962669372559 -3.814697265625e-06 Z" stroke="none" fill="#fe0"/>
    </g>
    <g id="Group_3754" data-name="Group 3754" transform="translate(322.504 -0.795) rotate(74)">
      <path id="Path_3360" data-name="Path 3360" d="M121.453,196.335h-2.68a.668.668,0,1,0,0,1.336h2.68a.668.668,0,1,0,0-1.336Z" transform="translate(-17.283 -21.238)" fill="#fe0"/>
      <path id="Path_3361" data-name="Path 3361" d="M118.773,164h2.68a.668.668,0,1,0,0-1.336h-2.68a.668.668,0,1,0,0,1.336Z" transform="translate(-17.283 -0.98)" fill="#fe0"/>
      <path id="Path_3362" data-name="Path 3362" d="M105.693,189.605H99.269a.668.668,0,0,0,0,1.336h6.424a.668.668,0,0,0,0-1.336Z" transform="translate(-5.549 -17.188)" fill="#fe0"/>
      <path id="Path_3363" data-name="Path 3363" d="M102.1,180.742a.668.668,0,0,0-.668-.668H90.047a.668.668,0,1,0,0,1.336h11.39A.668.668,0,0,0,102.1,180.742Z" transform="translate(0 -11.454)" fill="#fe0"/>
      <path id="Path_3364" data-name="Path 3364" d="M99.269,170.731h6.424a.668.668,0,1,0,0-1.336H99.269a.668.668,0,1,0,0,1.336Z" transform="translate(-5.549 -5.029)" fill="#fe0"/>
      <path id="Path_3365" data-name="Path 3365" d="M156.007,169.288l0,0h0l-.708-.715a12.47,12.47,0,0,0-3.559-2.233l-.067-.029c-.226-.1-.462-.2-.711-.294l-.184-.07q-.324-.123-.673-.239l-.28-.092q-.318-.1-.655-.2c-.122-.034-.244-.068-.37-.1q-.311-.082-.639-.157-.229-.053-.466-.1c-.2-.041-.4-.079-.6-.116s-.386-.067-.584-.1c-.163-.025-.325-.049-.492-.072-.255-.033-.516-.063-.782-.089-.1-.01-.19-.024-.289-.033a.591.591,0,0,0-.059,0c-.3-.025-.6-.048-.908-.065h-.5l-2.3-2.3-1.256-1.256h-7.581l1.256,1.256,2.3,2.3h-2.624l-1.708,2.164-1.121-1.42a1.954,1.954,0,0,0-1.534-.744h-2.157v9.35h2.157a1.954,1.954,0,0,0,1.534-.744l1.117-1.415,1.742,2.208H135.9l-2.3,2.3-1.256,1.256h7.581l1.256-1.256,2.3-2.3h.5c.31-.016.611-.039.908-.065a.486.486,0,0,0,.059,0c.1-.009.191-.023.289-.033.266-.027.527-.056.782-.089.167-.022.33-.047.492-.072q.3-.045.584-.1.307-.055.6-.116.237-.049.466-.1.327-.075.639-.156c.125-.033.248-.067.37-.1q.337-.095.655-.2c.095-.03.188-.061.28-.092q.349-.117.673-.239l.184-.07c.249-.1.485-.194.711-.294l.067-.029a12.459,12.459,0,0,0,3.559-2.233l.708-.715h0Zm-9.932-.03a14.545,14.545,0,0,1,.327-3.141,16.032,16.032,0,0,1,7.8,3.171,16.028,16.028,0,0,1-7.782,3.169A14.463,14.463,0,0,1,146.075,169.258Zm-10.7-6.965h4.029l2.3,2.3h-4.029Zm-5.905,10.129a.724.724,0,0,1-.568.276H128v-6.868h.908a.724.724,0,0,1,.568.276l1.472,1.866v2.585Zm9.934,3.862h-4.029l2.3-2.3H141.7Zm4.575-3.567s-.283.025-10.074.031l-1.721-2.181v-2.6l1.69-2.142c10.567.007,10.1.031,10.1.031.4.022.792.054,1.171.092a16.222,16.222,0,0,0,.014,6.67C144.785,172.662,144.391,172.694,143.984,172.717Z" transform="translate(-22.489)" fill="#fe0"/>
    </g>
    <text id="Q1_2022" data-name="Q1 2022" transform="translate(184 66)" fill="#fff" font-size="18" font-family="Orbitron-Bold, Orbitron" font-weight="700" letter-spacing="0.01em"><tspan x="0" y="18">Q1 2022</tspan></text>
    <text id="Q2_2022" data-name="Q2 2022" transform="translate(230 219)" fill="#a2a2a2" font-size="18" font-family="Orbitron-Bold, Orbitron" font-weight="700" letter-spacing="0.01em"><tspan x="0" y="18">Q2 2022</tspan></text>
    <text id="Q3_2022" data-name="Q3 2022" transform="translate(230 372)" fill="#a2a2a2" font-size="18" font-family="Orbitron-Bold, Orbitron" font-weight="700" letter-spacing="0.01em"><tspan x="0" y="18">Q3 2022</tspan></text>
    <text id="Q4_2022" data-name="Q4 2022" transform="translate(183 526)" fill="#a2a2a2" font-size="18" font-family="Orbitron-Bold, Orbitron" font-weight="700" letter-spacing="0.01em"><tspan x="0" y="18">Q4 2022</tspan></text>
    <g id="Ellipse_775" data-name="Ellipse 775" transform="translate(200 222)" fill="#212a38" stroke="#a2a2a2" stroke-width="2">
      <circle cx="7.5" cy="7.5" r="7.5" stroke="none"/>
      <circle cx="7.5" cy="7.5" r="6.5" fill="none"/>
    </g>
    <g id="Ellipse_776" data-name="Ellipse 776" transform="translate(200 375)" fill="#212a38" stroke="#a2a2a2" stroke-width="2">
      <circle cx="7.5" cy="7.5" r="7.5" stroke="none"/>
      <circle cx="7.5" cy="7.5" r="6.5" fill="none"/>
    </g>
    <g id="Ellipse_777" data-name="Ellipse 777" transform="translate(153 529)" fill="#212a38" stroke="#a2a2a2" stroke-width="2">
      <circle cx="7.5" cy="7.5" r="7.5" stroke="none"/>
      <circle cx="7.5" cy="7.5" r="6.5" fill="none"/>
    </g>
    <g id="Ellipse_778" data-name="Ellipse 778" transform="translate(129 299)" fill="#212a38" stroke="#a2a2a2" stroke-width="2">
      <circle cx="7.5" cy="7.5" r="7.5" stroke="none"/>
      <circle cx="7.5" cy="7.5" r="6.5" fill="none"/>
    </g>
    <text id="Q1_2023" data-name="Q1 2023" transform="translate(20 296)" fill="#a2a2a2" font-size="18" font-family="Orbitron-Bold, Orbitron" font-weight="700" letter-spacing="0.01em"><tspan x="4.702" y="18">Q1 2023</tspan></text>
    <g transform="matrix(1, 0, 0, 1, 0, 0)" filter="url(#We_Are_Here)">
      <text id="We_Are_Here-2" data-name="We Are Here" transform="translate(237 145)" fill="#fe0" font-size="13" font-family="Orbitron-Bold, Orbitron" font-weight="700"><tspan x="0" y="13">We Are Here</tspan></text>
    </g>
  </g>
</svg>
