<svg xmlns="http://www.w3.org/2000/svg" xmlns:xlink="http://www.w3.org/1999/xlink" width="348" height="613" viewBox="0 0 348 613">
  <defs>
    <clipPath id="clip-path">
      <rect id="Rectangle_246" data-name="Rectangle 246" width="360" height="613" transform="translate(58.248)" fill="#fff" stroke="#707070" stroke-width="1"/>
    </clipPath>
    <filter id="We_Are_Here" x="232.955" y="144.14" width="101.495" height="18.36" filterUnits="userSpaceOnUse">
      <feOffset input="SourceAlpha"/>
      <feGaussianBlur stdDeviation="1.5" result="blur"/>
      <feFlood flood-color="#19202b"/>
      <feComposite operator="in" in2="blur"/>
      <feComposite in="SourceGraphic"/>
    </filter>
    <clipPath id="clip-mobile_road_map1">
      <rect width="348" height="613"/>
    </clipPath>
  </defs>
  <g id="mobile_road_map1" clip-path="url(#clip-mobile_road_map1)">
    <g id="mobile_road_map">
      <g id="Mask_Group_14" data-name="Mask Group 14" transform="translate(-58.248)" clip-path="url(#clip-path)">
        <g id="Path_3412" data-name="Path 3412" transform="translate(-787.749 -223.901)">
          <path id="Path_7" data-name="Path 7" d="M530.159,0c292.8,0,530.159,237.36,530.159,530.159s-237.36,530.159-530.159,530.159S0,822.958,0,530.159,237.36,0,530.159,0Z" fill="none"/>
          <path id="Path_8" data-name="Path 8" d="M530.159,2a536.677,536.677,0,0,0-54,2.727,529.5,529.5,0,0,0-52.441,8C406.7,16.212,389.67,20.591,373.1,25.745c-16.385,5.1-32.711,11.072-48.524,17.76-15.667,6.627-31.2,14.109-46.168,22.24C263.547,73.818,248.9,82.719,234.862,92.2c-13.967,9.436-27.647,19.665-40.66,30.4-12.982,10.714-25.6,22.183-37.508,34.089S133.319,181.22,122.605,194.2c-10.74,13.013-20.969,26.693-30.4,40.66-9.481,14.034-18.382,28.685-26.455,43.546-8.131,14.968-15.614,30.5-22.24,46.168-6.688,15.813-12.664,32.139-17.76,48.524-5.154,16.57-9.532,33.6-13.014,50.614a529.5,529.5,0,0,0-8,52.441,536.11,536.11,0,0,0,0,108.008,529.486,529.486,0,0,0,8,52.44c3.482,17.016,7.86,34.045,13.014,50.615,5.1,16.385,11.072,32.711,17.76,48.524,6.627,15.667,14.109,31.2,22.24,46.167,8.073,14.862,16.974,29.513,26.455,43.547,9.436,13.967,19.665,27.647,30.4,40.66,10.714,12.982,22.183,25.6,34.089,37.508S181.22,927,194.2,937.713c13.013,10.74,26.693,20.969,40.66,30.4,14.034,9.481,28.685,18.382,43.546,26.455,14.968,8.127,30.5,15.617,46.168,22.237,15.813,6.69,32.139,12.67,48.524,17.76,16.57,5.16,33.6,9.54,50.614,13.02a527.8,527.8,0,0,0,52.441,8,535.514,535.514,0,0,0,108.008,0,527.778,527.778,0,0,0,52.44-8c17.016-3.48,34.045-7.86,50.615-13.02,16.385-5.09,32.711-11.07,48.524-17.76,15.667-6.62,31.2-14.11,46.167-22.237,14.862-8.073,29.513-16.974,43.547-26.455,13.967-9.436,27.647-19.665,40.66-30.4,12.982-10.714,25.6-22.183,37.508-34.089S927,879.1,937.713,866.116c10.74-13.013,20.969-26.693,30.4-40.66,9.481-14.034,18.382-28.685,26.455-43.547,8.127-14.967,15.617-30.5,22.237-46.167,6.69-15.813,12.67-32.139,17.76-48.524,5.16-16.57,9.54-33.6,13.02-50.615a527.778,527.778,0,0,0,8-52.44,535.514,535.514,0,0,0,0-108.008,527.8,527.8,0,0,0-8-52.441c-3.48-17.015-7.86-34.044-13.02-50.614-5.09-16.385-11.07-32.711-17.76-48.524-6.62-15.667-14.11-31.2-22.237-46.168C986.5,263.547,977.6,248.9,968.118,234.862c-9.436-13.967-19.665-27.647-30.4-40.66C927,181.22,915.53,168.6,903.624,156.694s-24.526-23.375-37.508-34.089c-13.013-10.74-26.693-20.969-40.66-30.4-14.034-9.481-28.685-18.382-43.547-26.455-14.967-8.131-30.5-15.614-46.167-22.24-15.813-6.688-32.139-12.664-48.524-17.76-16.57-5.154-33.6-9.532-50.615-13.014a529.486,529.486,0,0,0-52.44-8,536.677,536.677,0,0,0-54-2.727m0-2c292.8,0,530.161,237.36,530.161,530.159S822.958,1060.32,530.159,1060.32,0,822.958,0,530.159,237.36,0,530.159,0Z" fill="#fff"/>
        </g>
        <g id="Path_3413" data-name="Path 3413" transform="translate(-711.184 -147.337)">
          <path id="Path_9" data-name="Path 9" d="M453.594,0C704.107,0,907.188,203.081,907.188,453.594S704.107,907.188,453.594,907.188,0,704.107,0,453.594,203.081,0,453.594,0Z" fill="none"/>
          <path id="Path_10" data-name="Path 10" d="M453.594,2a458.845,458.845,0,0,0-46.175,2.332,452.688,452.688,0,0,0-44.839,6.843C348.031,14.152,333.471,17.9,319.3,22.3c-14.009,4.357-27.968,9.466-41.489,15.185A452.918,452.918,0,0,0,37.488,277.814C31.769,291.335,26.66,305.294,22.3,319.3c-4.407,14.168-8.151,28.728-11.128,43.277a452.688,452.688,0,0,0-6.843,44.839,458.377,458.377,0,0,0,0,92.35,452.684,452.684,0,0,0,6.843,44.839c2.977,14.548,6.721,29.109,11.128,43.277,4.357,14.009,9.466,27.968,15.185,41.489A452.914,452.914,0,0,0,277.814,869.7c13.521,5.719,27.48,10.828,41.489,15.185,14.168,4.407,28.728,8.151,43.277,11.128a452.545,452.545,0,0,0,44.839,6.843,458.318,458.318,0,0,0,92.35,0,452.541,452.541,0,0,0,44.839-6.843c14.548-2.977,29.109-6.721,43.277-11.128,14.009-4.357,27.968-9.466,41.489-15.185A452.913,452.913,0,0,0,869.7,629.374c5.719-13.521,10.828-27.48,15.185-41.489,4.407-14.168,8.151-28.729,11.128-43.277a452.541,452.541,0,0,0,6.843-44.839,458.318,458.318,0,0,0,0-92.35,452.545,452.545,0,0,0-6.843-44.839c-2.977-14.549-6.721-29.109-11.128-43.277-4.357-14.009-9.466-27.968-15.185-41.489A452.917,452.917,0,0,0,629.374,37.488c-13.521-5.719-27.48-10.828-41.489-15.185-14.168-4.407-28.729-8.151-43.277-11.128a452.684,452.684,0,0,0-44.839-6.843A458.845,458.845,0,0,0,453.594,2m0-2C704.107,0,907.188,203.081,907.188,453.594S704.107,907.188,453.594,907.188,0,704.107,0,453.594,203.081,0,453.594,0Z" fill="#fff"/>
        </g>
      </g>
      <circle id="Ellipse_773" data-name="Ellipse 773" cx="7.5" cy="7.5" r="7.5" transform="translate(154 69)" fill="#fe0"/>
      <g id="Path_3414" data-name="Path 3414" transform="translate(149.977 137.447) rotate(-24)">
        <path id="Path_11" data-name="Path 11" d="M30.69,60.379A29.7,29.7,0,0,1,19.133,3.333,29.7,29.7,0,0,1,42.246,58.047,29.5,29.5,0,0,1,30.69,60.379Z" fill="#19202b"/>
        <path id="Path_12" data-name="Path 12" d="M30.69,2A28.7,28.7,0,0,0,19.523,57.125,28.7,28.7,0,0,0,41.856,4.254,28.508,28.508,0,0,0,30.69,2m0-2A30.69,30.69,0,1,1,0,30.69,30.69,30.69,0,0,1,30.69,0Z" fill="#fe0"/>
      </g>
      <g id="Group_3754" data-name="Group 3754" transform="matrix(0.276, 0.961, -0.961, 0.276, 322.504, -0.795)">
        <path id="Path_3360" data-name="Path 3360" d="M121.453,196.335h-2.68a.668.668,0,0,0,0,1.336h2.68a.668.668,0,1,0,0-1.336Z" transform="translate(-17.283 -21.238)" fill="#fe0"/>
        <path id="Path_3361" data-name="Path 3361" d="M118.773,164h2.68a.668.668,0,1,0,0-1.336h-2.68a.668.668,0,0,0,0,1.336Z" transform="translate(-17.283 -0.98)" fill="#fe0"/>
        <path id="Path_3362" data-name="Path 3362" d="M105.693,189.6H99.269a.668.668,0,1,0,0,1.336h6.424a.668.668,0,0,0,0-1.336Z" transform="translate(-5.549 -17.188)" fill="#fe0"/>
        <path id="Path_3363" data-name="Path 3363" d="M102.1,180.742a.668.668,0,0,0-.668-.668H90.047a.668.668,0,0,0,0,1.336h11.39A.668.668,0,0,0,102.1,180.742Z" transform="translate(0 -11.454)" fill="#fe0"/>
        <path id="Path_3364" data-name="Path 3364" d="M99.269,170.731h6.424a.668.668,0,0,0,0-1.336H99.269a.668.668,0,1,0,0,1.336Z" transform="translate(-5.549 -5.029)" fill="#fe0"/>
        <path id="Path_3365" data-name="Path 3365" d="M156.007,169.288h0l-.708-.715a12.471,12.471,0,0,0-3.559-2.233l-.067-.029c-.226-.1-.462-.2-.711-.294l-.184-.07q-.324-.123-.673-.239l-.28-.092q-.318-.1-.655-.2c-.122-.034-.244-.068-.37-.1q-.311-.082-.639-.157-.229-.053-.466-.1c-.2-.041-.4-.079-.6-.116s-.386-.067-.584-.1c-.163-.025-.325-.049-.492-.072q-.383-.05-.782-.089c-.1-.01-.19-.024-.289-.033h-.059c-.3-.025-.6-.048-.908-.065h-.5l-2.3-2.3-1.256-1.256h-7.581l1.256,1.256,2.3,2.3h-2.624l-1.708,2.164-1.121-1.42a1.954,1.954,0,0,0-1.534-.744h-2.157v9.35h2.157a1.954,1.954,0,0,0,1.534-.744l1.117-1.415,1.742,2.208H135.9l-2.3,2.3-1.256,1.256h7.581l1.256-1.256,2.3-2.3h.5c.31-.016.611-.039.908-.065a.488.488,0,0,0,.059,0c.1-.009.191-.023.289-.033.266-.027.527-.056.782-.089.167-.022.33-.047.492-.072q.3-.045.584-.1.307-.055.6-.116.237-.049.466-.1.327-.075.639-.156l.37-.1q.337-.1.655-.2c.1-.03.188-.061.28-.092q.349-.117.673-.239l.184-.07c.249-.1.485-.194.711-.294l.067-.029a12.46,12.46,0,0,0,3.559-2.233l.708-.715h0Zm-9.932-.03a14.545,14.545,0,0,1,.327-3.141,16.032,16.032,0,0,1,7.8,3.171,16.028,16.028,0,0,1-7.782,3.169,14.463,14.463,0,0,1-.345-3.2Zm-10.7-6.965H139.4l2.3,2.3h-4.029Zm-5.9,10.129a.724.724,0,0,1-.568.276H128V165.83h.908a.724.724,0,0,1,.568.276l1.472,1.866v2.585Zm9.934,3.862h-4.029l2.3-2.3H141.7Zm4.575-3.567s-.283.025-10.074.031l-1.721-2.181v-2.6l1.69-2.142c10.567.007,10.1.031,10.1.031.4.022.792.054,1.171.092a16.222,16.222,0,0,0,.014,6.67c-.374.044-.768.076-1.175.1Z" transform="translate(-22.489)" fill="#fe0"/>
      </g>
      <path id="Q1_2022" data-name="Q1 2022" d="M13.932-2.376v-8.082a2.512,2.512,0,0,0-2.52-2.5H3.474a2.5,2.5,0,0,0-2.5,2.5V-2.5A2.5,2.5,0,0,0,3.474,0H15.48V-2.376Zm-10.458,0A.123.123,0,0,1,3.348-2.5v-7.956a.123.123,0,0,1,.126-.126h7.938a.123.123,0,0,1,.126.126V-2.5a.123.123,0,0,1-.126.126ZM16.11-8.3h3.114c.324-.4.684-.792,1.044-1.224V0h2.358V-12.96h-2.61ZM32.544-12.96a2.489,2.489,0,0,0-2.484,2.484V-9.5h2.358v-.972a.123.123,0,0,1,.126-.126H40.41a.123.123,0,0,1,.126.126V-7.6a.12.12,0,0,1-.126.108H32.544A2.489,2.489,0,0,0,30.06-5V0H42.894V-2.358H32.544a.123.123,0,0,1-.126-.126V-5c0-.072.054-.108.126-.108H40.41A2.489,2.489,0,0,0,42.894-7.6v-2.88A2.489,2.489,0,0,0,40.41-12.96Zm15.12,0a2.536,2.536,0,0,0-2.484,2.538v7.866A2.552,2.552,0,0,0,47.664,0H55.53a2.552,2.552,0,0,0,2.484-2.556v-7.866A2.536,2.536,0,0,0,55.53-12.96Zm6.93,2.412L47.538-4.626v-5.8a.123.123,0,0,1,.126-.126ZM48.6-2.43l7.056-5.922v5.8a.123.123,0,0,1-.126.126ZM62.856-12.96a2.489,2.489,0,0,0-2.484,2.484V-9.5H62.73v-.972a.123.123,0,0,1,.126-.126h7.866a.123.123,0,0,1,.126.126V-7.6a.12.12,0,0,1-.126.108H62.856A2.489,2.489,0,0,0,60.372-5V0H73.206V-2.358H62.856a.123.123,0,0,1-.126-.126V-5c0-.072.054-.108.126-.108h7.866A2.489,2.489,0,0,0,73.206-7.6v-2.88a2.489,2.489,0,0,0-2.484-2.484Zm15.12,0a2.489,2.489,0,0,0-2.484,2.484V-9.5H77.85v-.972a.123.123,0,0,1,.126-.126h7.866a.123.123,0,0,1,.126.126V-7.6a.12.12,0,0,1-.126.108H77.976A2.489,2.489,0,0,0,75.492-5V0H88.326V-2.358H77.976a.123.123,0,0,1-.126-.126V-5c0-.072.054-.108.126-.108h7.866A2.489,2.489,0,0,0,88.326-7.6v-2.88a2.489,2.489,0,0,0-2.484-2.484Z" transform="translate(184 84)" fill="#fff"/>
      <path id="Q2_2022" data-name="Q2 2022" d="M13.932-2.376v-8.082a2.512,2.512,0,0,0-2.52-2.5H3.474a2.5,2.5,0,0,0-2.5,2.5V-2.5A2.5,2.5,0,0,0,3.474,0H15.48V-2.376Zm-10.458,0A.123.123,0,0,1,3.348-2.5v-7.956a.123.123,0,0,1,.126-.126h7.938a.123.123,0,0,1,.126.126V-2.5a.123.123,0,0,1-.126.126ZM19.6-12.96a2.489,2.489,0,0,0-2.484,2.484V-9.5h2.358v-.972A.123.123,0,0,1,19.6-10.6h7.866a.123.123,0,0,1,.126.126V-7.6a.12.12,0,0,1-.126.108H19.6A2.489,2.489,0,0,0,17.118-5V0H29.952V-2.358H19.6a.123.123,0,0,1-.126-.126V-5c0-.072.054-.108.126-.108h7.866A2.489,2.489,0,0,0,29.952-7.6v-2.88a2.489,2.489,0,0,0-2.484-2.484Zm20.844,0a2.489,2.489,0,0,0-2.484,2.484V-9.5H40.32v-.972a.123.123,0,0,1,.126-.126h7.866a.123.123,0,0,1,.126.126V-7.6a.12.12,0,0,1-.126.108H40.446A2.489,2.489,0,0,0,37.962-5V0H50.8V-2.358H40.446a.123.123,0,0,1-.126-.126V-5c0-.072.054-.108.126-.108h7.866A2.489,2.489,0,0,0,50.8-7.6v-2.88a2.489,2.489,0,0,0-2.484-2.484Zm15.12,0a2.536,2.536,0,0,0-2.484,2.538v7.866A2.552,2.552,0,0,0,55.566,0h7.866a2.552,2.552,0,0,0,2.484-2.556v-7.866a2.536,2.536,0,0,0-2.484-2.538Zm6.93,2.412L55.44-4.626v-5.8a.123.123,0,0,1,.126-.126ZM56.5-2.43l7.056-5.922v5.8a.123.123,0,0,1-.126.126ZM70.758-12.96a2.489,2.489,0,0,0-2.484,2.484V-9.5h2.358v-.972a.123.123,0,0,1,.126-.126h7.866a.123.123,0,0,1,.126.126V-7.6a.12.12,0,0,1-.126.108H70.758A2.489,2.489,0,0,0,68.274-5V0H81.108V-2.358H70.758a.123.123,0,0,1-.126-.126V-5c0-.072.054-.108.126-.108h7.866A2.489,2.489,0,0,0,81.108-7.6v-2.88a2.489,2.489,0,0,0-2.484-2.484Zm15.12,0a2.489,2.489,0,0,0-2.484,2.484V-9.5h2.358v-.972a.123.123,0,0,1,.126-.126h7.866a.123.123,0,0,1,.126.126V-7.6a.12.12,0,0,1-.126.108H85.878A2.489,2.489,0,0,0,83.394-5V0H96.228V-2.358H85.878a.123.123,0,0,1-.126-.126V-5c0-.072.054-.108.126-.108h7.866A2.489,2.489,0,0,0,96.228-7.6v-2.88a2.489,2.489,0,0,0-2.484-2.484Z" transform="translate(230 237)" fill="#a2a2a2"/>
      <path id="Q3_2022" data-name="Q3 2022" d="M13.932-2.376v-8.082a2.512,2.512,0,0,0-2.52-2.5H3.474a2.5,2.5,0,0,0-2.5,2.5V-2.5A2.5,2.5,0,0,0,3.474,0H15.48V-2.376Zm-10.458,0A.123.123,0,0,1,3.348-2.5v-7.956a.123.123,0,0,1,.126-.126h7.938a.123.123,0,0,1,.126.126V-2.5a.123.123,0,0,1-.126.126Zm25.9-8.1a2.489,2.489,0,0,0-2.484-2.484H19.53a2.489,2.489,0,0,0-2.484,2.484v.936H19.4v-.936a.123.123,0,0,1,.126-.126h7.362a.123.123,0,0,1,.126.126v2.592a.12.12,0,0,1-.126.108H19.278v2.358h8.136a.12.12,0,0,1,.108.126v2.808a.12.12,0,0,1-.108.126H19.53a.123.123,0,0,1-.126-.126v-.774H17.046v.774A2.489,2.489,0,0,0,19.53,0h7.884A2.474,2.474,0,0,0,29.88-2.484V-5.292A2.475,2.475,0,0,0,29.2-6.984a2.117,2.117,0,0,0,.18-.9Zm11-2.484a2.489,2.489,0,0,0-2.484,2.484V-9.5h2.358v-.972a.123.123,0,0,1,.126-.126H48.24a.123.123,0,0,1,.126.126V-7.6a.12.12,0,0,1-.126.108H40.374A2.489,2.489,0,0,0,37.89-5V0H50.724V-2.358H40.374a.123.123,0,0,1-.126-.126V-5c0-.072.054-.108.126-.108H48.24A2.489,2.489,0,0,0,50.724-7.6v-2.88A2.489,2.489,0,0,0,48.24-12.96Zm15.12,0a2.536,2.536,0,0,0-2.484,2.538v7.866A2.552,2.552,0,0,0,55.494,0H63.36a2.552,2.552,0,0,0,2.484-2.556v-7.866A2.536,2.536,0,0,0,63.36-12.96Zm6.93,2.412L55.368-4.626v-5.8a.123.123,0,0,1,.126-.126ZM56.43-2.43l7.056-5.922v5.8a.123.123,0,0,1-.126.126ZM70.686-12.96A2.489,2.489,0,0,0,68.2-10.476V-9.5H70.56v-.972a.123.123,0,0,1,.126-.126h7.866a.123.123,0,0,1,.126.126V-7.6a.12.12,0,0,1-.126.108H70.686A2.489,2.489,0,0,0,68.2-5V0H81.036V-2.358H70.686a.123.123,0,0,1-.126-.126V-5c0-.072.054-.108.126-.108h7.866A2.489,2.489,0,0,0,81.036-7.6v-2.88a2.489,2.489,0,0,0-2.484-2.484Zm15.12,0a2.489,2.489,0,0,0-2.484,2.484V-9.5H85.68v-.972a.123.123,0,0,1,.126-.126h7.866a.123.123,0,0,1,.126.126V-7.6a.12.12,0,0,1-.126.108H85.806A2.489,2.489,0,0,0,83.322-5V0H96.156V-2.358H85.806a.123.123,0,0,1-.126-.126V-5c0-.072.054-.108.126-.108h7.866A2.489,2.489,0,0,0,96.156-7.6v-2.88a2.489,2.489,0,0,0-2.484-2.484Z" transform="translate(230 390)" fill="#a2a2a2"/>
      <path id="Q4_2022" data-name="Q4 2022" d="M13.932-2.376v-8.082a2.512,2.512,0,0,0-2.52-2.5H3.474a2.5,2.5,0,0,0-2.5,2.5V-2.5A2.5,2.5,0,0,0,3.474,0H15.48V-2.376Zm-10.458,0A.123.123,0,0,1,3.348-2.5v-7.956a.123.123,0,0,1,.126-.126h7.938a.123.123,0,0,1,.126.126V-2.5a.123.123,0,0,1-.126.126Zm23.238-3.24V-12.96H24.5L16.2-5.472v2.214h8.154V0h2.358V-3.258H28.53V-5.616ZM24.354-9.252v3.636H19.872ZM38.646-12.96a2.489,2.489,0,0,0-2.484,2.484V-9.5H38.52v-.972a.123.123,0,0,1,.126-.126h7.866a.123.123,0,0,1,.126.126V-7.6a.12.12,0,0,1-.126.108H38.646A2.489,2.489,0,0,0,36.162-5V0H49V-2.358H38.646a.123.123,0,0,1-.126-.126V-5c0-.072.054-.108.126-.108h7.866A2.489,2.489,0,0,0,49-7.6v-2.88a2.489,2.489,0,0,0-2.484-2.484Zm15.12,0a2.536,2.536,0,0,0-2.484,2.538v7.866A2.552,2.552,0,0,0,53.766,0h7.866a2.552,2.552,0,0,0,2.484-2.556v-7.866a2.536,2.536,0,0,0-2.484-2.538Zm6.93,2.412L53.64-4.626v-5.8a.123.123,0,0,1,.126-.126ZM54.7-2.43l7.056-5.922v5.8a.123.123,0,0,1-.126.126ZM68.958-12.96a2.489,2.489,0,0,0-2.484,2.484V-9.5h2.358v-.972a.123.123,0,0,1,.126-.126h7.866a.123.123,0,0,1,.126.126V-7.6a.12.12,0,0,1-.126.108H68.958A2.489,2.489,0,0,0,66.474-5V0H79.308V-2.358H68.958a.123.123,0,0,1-.126-.126V-5c0-.072.054-.108.126-.108h7.866A2.489,2.489,0,0,0,79.308-7.6v-2.88a2.489,2.489,0,0,0-2.484-2.484Zm15.12,0a2.489,2.489,0,0,0-2.484,2.484V-9.5h2.358v-.972a.123.123,0,0,1,.126-.126h7.866a.123.123,0,0,1,.126.126V-7.6a.12.12,0,0,1-.126.108H84.078A2.489,2.489,0,0,0,81.594-5V0H94.428V-2.358H84.078a.123.123,0,0,1-.126-.126V-5c0-.072.054-.108.126-.108h7.866A2.489,2.489,0,0,0,94.428-7.6v-2.88a2.489,2.489,0,0,0-2.484-2.484Z" transform="translate(183 544)" fill="#a2a2a2"/>
      <g id="Ellipse_775" data-name="Ellipse 775" transform="translate(200 222)" fill="#212a38" stroke="#a2a2a2" stroke-width="2">
        <circle cx="7.5" cy="7.5" r="7.5" stroke="none"/>
        <circle cx="7.5" cy="7.5" r="6.5" fill="none"/>
      </g>
      <g id="Ellipse_776" data-name="Ellipse 776" transform="translate(200 375)" fill="#212a38" stroke="#a2a2a2" stroke-width="2">
        <circle cx="7.5" cy="7.5" r="7.5" stroke="none"/>
        <circle cx="7.5" cy="7.5" r="6.5" fill="none"/>
      </g>
      <g id="Ellipse_777" data-name="Ellipse 777" transform="translate(153 529)" fill="#212a38" stroke="#a2a2a2" stroke-width="2">
        <circle cx="7.5" cy="7.5" r="7.5" stroke="none"/>
        <circle cx="7.5" cy="7.5" r="6.5" fill="none"/>
      </g>
      <g id="Ellipse_778" data-name="Ellipse 778" transform="translate(129 299)" fill="#212a38" stroke="#a2a2a2" stroke-width="2">
        <circle cx="7.5" cy="7.5" r="7.5" stroke="none"/>
        <circle cx="7.5" cy="7.5" r="6.5" fill="none"/>
      </g>
      <path id="Q1_2023" data-name="Q1 2023" d="M13.932-2.376v-8.082a2.512,2.512,0,0,0-2.52-2.5H3.474a2.5,2.5,0,0,0-2.5,2.5V-2.5A2.5,2.5,0,0,0,3.474,0H15.48V-2.376Zm-10.458,0A.123.123,0,0,1,3.348-2.5v-7.956a.123.123,0,0,1,.126-.126h7.938a.123.123,0,0,1,.126.126V-2.5a.123.123,0,0,1-.126.126ZM16.11-8.3h3.114c.324-.4.684-.792,1.044-1.224V0h2.358V-12.96h-2.61ZM32.544-12.96a2.489,2.489,0,0,0-2.484,2.484V-9.5h2.358v-.972a.123.123,0,0,1,.126-.126H40.41a.123.123,0,0,1,.126.126V-7.6a.12.12,0,0,1-.126.108H32.544A2.489,2.489,0,0,0,30.06-5V0H42.894V-2.358H32.544a.123.123,0,0,1-.126-.126V-5c0-.072.054-.108.126-.108H40.41A2.489,2.489,0,0,0,42.894-7.6v-2.88A2.489,2.489,0,0,0,40.41-12.96Zm15.12,0a2.536,2.536,0,0,0-2.484,2.538v7.866A2.552,2.552,0,0,0,47.664,0H55.53a2.552,2.552,0,0,0,2.484-2.556v-7.866A2.536,2.536,0,0,0,55.53-12.96Zm6.93,2.412L47.538-4.626v-5.8a.123.123,0,0,1,.126-.126ZM48.6-2.43l7.056-5.922v5.8a.123.123,0,0,1-.126.126ZM62.856-12.96a2.489,2.489,0,0,0-2.484,2.484V-9.5H62.73v-.972a.123.123,0,0,1,.126-.126h7.866a.123.123,0,0,1,.126.126V-7.6a.12.12,0,0,1-.126.108H62.856A2.489,2.489,0,0,0,60.372-5V0H73.206V-2.358H62.856a.123.123,0,0,1-.126-.126V-5c0-.072.054-.108.126-.108h7.866A2.489,2.489,0,0,0,73.206-7.6v-2.88a2.489,2.489,0,0,0-2.484-2.484ZM87.75-10.476a2.489,2.489,0,0,0-2.484-2.484H77.9a2.489,2.489,0,0,0-2.484,2.484v.936h2.358v-.936A.123.123,0,0,1,77.9-10.6h7.362a.123.123,0,0,1,.126.126v2.592a.12.12,0,0,1-.126.108H77.652v2.358h8.136a.12.12,0,0,1,.108.126v2.808a.12.12,0,0,1-.108.126H77.9a.123.123,0,0,1-.126-.126v-.774H75.42v.774A2.489,2.489,0,0,0,77.9,0h7.884a2.474,2.474,0,0,0,2.466-2.484V-5.292a2.475,2.475,0,0,0-.684-1.692,2.117,2.117,0,0,0,.18-.9Z" transform="translate(24.702 314)" fill="#a2a2a2"/>
      <g transform="matrix(1, 0, 0, 1, 0, 0)" filter="url(#We_Are_Here)">
        <path id="We_Are_Here-2" data-name="We Are Here" d="M13-9.36,10.738-3.185,8.476-9.36H6.8L4.537-3.185,2.275-9.36H.455L3.861,0H5.2c.78-2.171,1.638-4.459,2.431-6.643L10.062,0h1.352L14.82-9.36Zm7.826,1.82H16.757a1.8,1.8,0,0,0-1.794,1.794v3.952A1.8,1.8,0,0,0,16.757,0H22.62V-1.7H16.757a.089.089,0,0,1-.091-.091V-2.912H22.62V-5.746A1.8,1.8,0,0,0,20.826-7.54Zm-4.16,2.912V-5.746a.089.089,0,0,1,.091-.091h4.069a.089.089,0,0,1,.091.091v1.118Zm13.2-4.732a1.8,1.8,0,0,0-1.807,1.807V0H29.77V-3.146h5.915V0h1.729V-7.553a1.814,1.814,0,0,0-1.82-1.807Zm-.091,4.5V-7.553a.089.089,0,0,1,.091-.091h5.733a.089.089,0,0,1,.091.091v2.691ZM40.638-7.54a1.8,1.8,0,0,0-1.794,1.794V0h1.7V-5.746a.089.089,0,0,1,.091-.091h4.186v-1.7Zm10.92,0H47.489a1.8,1.8,0,0,0-1.794,1.794v3.952A1.8,1.8,0,0,0,47.489,0h5.863V-1.7H47.489a.089.089,0,0,1-.091-.091V-2.912h5.954V-5.746A1.8,1.8,0,0,0,51.558-7.54ZM47.4-4.628V-5.746a.089.089,0,0,1,.091-.091h4.069a.089.089,0,0,1,.091.091v1.118ZM66.625-9.36v3.822H60.489V-9.36H58.773V0h1.716V-3.822h6.136V0h1.716V-9.36Zm9,1.82H71.552a1.8,1.8,0,0,0-1.794,1.794v3.952A1.8,1.8,0,0,0,71.552,0h5.863V-1.7H71.552a.089.089,0,0,1-.091-.091V-2.912h5.954V-5.746A1.8,1.8,0,0,0,75.621-7.54Zm-4.16,2.912V-5.746a.089.089,0,0,1,.091-.091h4.069a.089.089,0,0,1,.091.091v1.118ZM80.236-7.54a1.8,1.8,0,0,0-1.794,1.794V0h1.7V-5.746a.089.089,0,0,1,.091-.091h4.186v-1.7Zm10.92,0H87.087a1.8,1.8,0,0,0-1.794,1.794v3.952A1.8,1.8,0,0,0,87.087,0H92.95V-1.7H87.087A.089.089,0,0,1,87-1.794V-2.912H92.95V-5.746A1.8,1.8,0,0,0,91.156-7.54ZM87-4.628V-5.746a.089.089,0,0,1,.091-.091h4.069a.089.089,0,0,1,.091.091v1.118Z" transform="translate(237 158)" fill="#fe0"/>
      </g>
    </g>
  </g>
</svg>
