<svg xmlns="http://www.w3.org/2000/svg" width="380" height="18.293" viewBox="0 0 380 18.293">
  <g id="Group_3664" data-name="Group 3664" transform="translate(0 -3409.149)">
    <line id="Line_6" data-name="Line 6" x2="380" transform="translate(0 3418.296)" fill="none" stroke="#fff" stroke-width="2"/>
    <g id="Ellipse_715" data-name="Ellipse 715" transform="translate(256 3427.442) rotate(-90)" fill="#212a38" stroke="#fe0" stroke-width="2">
      <circle cx="9.146" cy="9.146" r="9.146" stroke="none"/>
      <circle cx="9.146" cy="9.146" r="8.146" fill="none"/>
    </g>
    <g id="Ellipse_716" data-name="Ellipse 716" transform="translate(169.5 3424.032) rotate(-90)" fill="#212a38" stroke="#fff" stroke-width="2">
      <circle cx="5.82" cy="5.82" r="5.82" stroke="none"/>
      <circle cx="5.82" cy="5.82" r="4.82" fill="none"/>
    </g>
    <g id="Ellipse_717" data-name="Ellipse 717" transform="translate(234.358 3424.032) rotate(-90)" fill="#212a38" stroke="#fff" stroke-width="2">
      <circle cx="5.82" cy="5.82" r="5.82" stroke="none"/>
      <circle cx="5.82" cy="5.82" r="4.82" fill="none"/>
    </g>
    <g id="Ellipse_718" data-name="Ellipse 718" transform="translate(212.739 3424.032) rotate(-90)" fill="#212a38" stroke="#fff" stroke-width="2">
      <circle cx="5.82" cy="5.82" r="5.82" stroke="none"/>
      <circle cx="5.82" cy="5.82" r="4.82" fill="none"/>
    </g>
    <g id="Ellipse_720" data-name="Ellipse 720" transform="translate(284.271 3424.032) rotate(-90)" fill="#212a38" stroke="#fff" stroke-width="2">
      <circle cx="5.82" cy="5.82" r="5.82" stroke="none"/>
      <circle cx="5.82" cy="5.82" r="4.82" fill="none"/>
    </g>
    <g id="Ellipse_719" data-name="Ellipse 719" transform="translate(191.119 3424.032) rotate(-90)" fill="#212a38" stroke="#fff" stroke-width="2">
      <circle cx="5.82" cy="5.82" r="5.82" stroke="none"/>
      <circle cx="5.82" cy="5.82" r="4.82" fill="none"/>
    </g>
  </g>
</svg>
